<?xml version="1.0" encoding="utf-8"?>
<!-- Generator: Adobe Illustrator 16.0.0, SVG Export Plug-In . SVG Version: 6.00 Build 0)  -->
<!DOCTYPE svg PUBLIC "-//W3C//DTD SVG 1.1//EN" "http://www.w3.org/Graphics/SVG/1.1/DTD/svg11.dtd">
<svg version="1.1" id="Layer_1" xmlns="http://www.w3.org/2000/svg" xmlns:xlink="http://www.w3.org/1999/xlink" x="0px" y="0px"
	 width="283.465px" height="283.464px" viewBox="0 0 283.465 283.464" enable-background="new 0 0 283.465 283.464"
	 xml:space="preserve">
<g id="Outline" display="none">
	<path display="inline" fill="none" stroke="#000000" stroke-miterlimit="10" d="M310.034,311.634
		c-4.069-0.457-8.206-0.689-12.396-0.689c-60.752,0-110,49.25-110,110.002c0,30.375,12.311,57.873,32.215,77.775"/>
	
		<line display="inline" fill="none" stroke="#000000" stroke-miterlimit="10" x1="219.855" y1="498.726" x2="375.419" y2="343.164"/>
	<path display="inline" fill="none" stroke="#000000" stroke-linecap="round" stroke-miterlimit="10" d="M368.303,426.953
		c14.053-9.961,23.227-26.359,23.227-44.898c0-30.375-24.625-55-55-55s-55,24.625-55,55c0,15.188,6.156,28.938,16.109,38.893"/>
	<path display="inline" fill="none" stroke="#000000" stroke-linecap="round" stroke-linejoin="round" stroke-miterlimit="10" d="
		M375.419,343.164l-56.172-56.17c0,0-7.073,12.924-9.212,24.643"/>
	<path display="inline" fill="none" stroke="#000000" stroke-miterlimit="10" d="M285.236,530.251
		c4.07,0.457,8.207,0.691,12.398,0.693c60.75,0.002,110-49.244,110.004-109.998c0.002-30.373-12.31-57.873-32.211-77.779"/>
	<path display="inline" fill="none" stroke="#000000" stroke-linecap="round" stroke-linejoin="round" stroke-miterlimit="10" d="
		M219.854,498.72l56.168,56.174c0,0,7.074-12.926,9.215-24.643"/>
	<circle display="inline" cx="315.997" cy="361.5" r="12.75"/>
	<path display="inline" fill="none" stroke="#000000" stroke-miterlimit="10" d="M297.639,420.945
		c17.559,17.539,46.207,17.271,64.053-0.6"/>
	<path display="inline" fill="none" stroke="#000000" stroke-miterlimit="10" d="M338.248,433.005
		c-20.729,22.846-25.997,59.979-10.645,93.807"/>
	
		<line display="inline" fill="none" stroke="#000000" stroke-linecap="round" stroke-miterlimit="10" x1="329.95" y1="388.628" x2="368.303" y2="426.955"/>
	<path display="inline" fill="none" stroke="#000000" stroke-miterlimit="10" d="M226.975,414.935
		c-14.056,9.963-23.229,26.359-23.229,44.898c0,30.377,24.624,55,55,55c30.375,0,55-24.623,55-55
		c0-15.188-6.156-28.938-16.107-38.889"/>
	<circle display="inline" cx="279.277" cy="480.388" r="12.75"/>
	<path display="inline" fill="none" stroke="#000000" stroke-miterlimit="10" d="M297.639,420.945
		c-17.561-17.539-46.209-17.273-64.056,0.596"/>
	<path display="inline" fill="none" stroke="#000000" stroke-miterlimit="10" d="M257.027,408.882
		c20.729-22.848,25.996-59.979,10.645-93.807"/>
	
		<line display="inline" fill="none" stroke="#000000" stroke-linecap="round" stroke-linejoin="round" stroke-miterlimit="10" x1="265.325" y1="453.257" x2="226.973" y2="414.933"/>
</g>
<g id="Colore">
	<path fill="#F26939" d="M251.732,141.737c0,60.75-49.25,110-110,110c-4.189-0.01-8.33-0.24-12.4-0.701
		c-2.139,11.721-9.219,24.65-9.219,24.65l-56.16-56.17v-0.014h0.01c9.949,9.961,23.699,16.111,38.88,16.111c30.37,0,55-24.621,55-55
		c0-15.18-6.16-28.93-16.108-38.889c10.988,10.969,26.309,14.979,40.608,12.068c8.562-1.75,16.76-5.971,23.44-12.66l6.607,6.6h0.012
		c14.051-9.971,23.221-26.359,23.221-44.9c0-14.67-5.73-27.979-15.103-37.85C239.843,84.805,251.732,111.885,251.732,141.737z"/>
	<path fill="none" d="M63.943,219.504c-0.312-0.309-0.621-0.619-0.91-0.938"/>
	<path fill="none" d="M220.314,64.764c-0.25-0.27-0.521-0.537-0.791-0.809"/>
	<path fill="#FAA841" d="M109.423,174.045l-45.46,45.459h-0.01c-0.312-0.309-0.621-0.629-0.92-0.938
		c-9.42-9.871-15.19-23.23-15.19-37.951c0-18.529,9.17-34.93,23.229-44.889l6.609,6.6L109.423,174.045z"/>
	<path fill="#FAA841" d="M174.023,109.385l45.432-45.486h0.012c0.311,0.309,0.619,0.629,0.92,0.938
		c9.428,9.863,15.203,23.223,15.213,37.941c0.014,18.531-9.146,34.936-23.199,44.902l-6.615-6.594L174.023,109.385z"/>
	<path fill="#186E64" d="M91.703,132.676c-5.08,2.25-9.852,5.471-14.021,9.65l-6.609-6.6c-14.061,9.959-23.229,26.359-23.229,44.889
		c0,14.721,5.771,28.08,15.19,37.951c-19.371-19.82-31.301-46.941-31.301-76.83c0-48.551,31.449-89.76,75.079-104.34
		C129.152,66.495,122.402,109.106,91.703,132.676z"/>
	<path opacity="0.5" fill="#071D1A" enable-background="new    " d="M91.703,132.676c-5.08,2.25-9.852,5.471-14.021,9.65l-6.609-6.6
		c-14.061,9.959-23.229,26.359-23.229,44.889c0,14.721,5.771,28.08,15.19,37.951c-19.371-19.82-31.301-46.941-31.301-76.83
		c0-48.551,31.449-89.76,75.079-104.34C129.152,66.495,122.402,109.106,91.703,132.676z"/>
	<path opacity="0.7" fill="#A74128" enable-background="new    " d="M191.744,150.874c5.084-2.24,9.859-5.451,14.039-9.625
		l6.597,6.615c14.079-9.934,23.282-26.314,23.317-44.844c0.028-14.721-5.713-28.094-15.115-37.98
		c19.332,19.859,31.209,47.002,31.148,76.891c-0.097,48.551-31.628,89.699-75.283,104.191
		C154.164,216.981,160.998,174.383,191.744,150.874z"/>
	<path fill="#186E64" d="M219.513,63.946c-9.95-9.949-23.7-16.109-38.89-16.109c-30.371,0-55,24.629-55,55
		c0,15.189,6.16,28.939,16.109,38.891c-10.99-10.971-26.311-14.971-40.609-12.061c-3.211,0.66-6.371,1.66-9.42,3.01
		c30.699-23.568,37.449-66.18,15.108-95.279c1.399-0.471,2.812-0.91,4.229-1.32c0.371-0.109,0.74-0.219,1.111-0.32
		c0.639-0.188,1.289-0.357,1.938-0.527c8.829-2.281,18.101-3.5,27.642-3.5c4.188,0,8.328,0.238,12.398,0.697
		c2.141-11.719,9.21-24.648,9.21-24.648L219.513,63.946z"/>
	<path fill="#FFFFFF" d="M180.623,47.834c-30.371,0-55,24.631-55,55c0,15.191,6.16,28.941,16.109,38.893l77.779-77.781
		C209.564,53.995,195.814,47.834,180.623,47.834z M160.093,95.036c-7.04,0-12.75-5.709-12.75-12.75c0-7.039,5.71-12.75,12.75-12.75
		s12.75,5.711,12.75,12.75C172.843,89.327,167.133,95.036,160.093,95.036z"/>
	<circle cx="160.093" cy="82.286" r="12.75"/>
	<path fill="#F7941E" d="M205.783,141.135c-6.682,6.691-14.881,10.91-23.439,12.66c-14.301,2.91-29.62-1.1-40.609-12.068
		l32.311-32.311L205.783,141.135z"/>
	<path fill="#FFFFFF" d="M141.732,141.725l-32.311,32.32l-45.46,45.459c9.95,9.961,23.7,16.111,38.88,16.111
		c30.369,0,55-24.621,55-55C157.843,165.436,151.683,151.686,141.732,141.725z M123.373,213.924c-7.041,0-12.75-5.709-12.75-12.75
		c0-7.039,5.709-12.75,12.75-12.75c7.039,0,12.75,5.711,12.75,12.75C136.123,208.215,130.412,213.924,123.373,213.924z"/>
	<path fill="#F7941E" d="M141.732,141.725l-32.311,32.32l-31.74-31.721c4.17-4.18,8.939-7.4,14.021-9.65
		c3.049-1.35,6.209-2.35,9.42-3.01C115.423,126.756,130.742,130.756,141.732,141.725z"/>
	<circle cx="123.373" cy="201.174" r="12.75"/>
	<line fill="none" x1="71.072" y1="135.725" x2="71.072" y2="135.715"/>
</g>
</svg>
