<svg height="96" viewBox="0 0 100 100" xmlns="http://www.w3.org/2000/svg" preserveAspectRatio="none"><path fill="#fff" d="M0 0c16.667 66.667 33.333 100 50 100S83.333 66.667 100 0v100H0V0z"/><path fill="#fff" d="M0 0c11.11 33.333 19.444 50 25 50 8.333 0 16.666-50 25-50s16.667 50 25 50c5.556 0 13.89-16.667 25-50v100H0V0z" fill-opacity=".1"/><path fill="#fff" d="M0 0c44.444 66.667 69.444 100 75 100 5.555 0 13.889-33.333 25-100v100H0V0z" fill-opacity=".1"/><path fill="#fff" d="M100 0C55.556 66.667 30.556 100 25 100 19.445 100 11.111 66.667 0 0v100h100V0z" fill-opacity=".1"/></svg>