<svg width="181" height="248" fill="none" xmlns="http://www.w3.org/2000/svg"><path d="M173.496 137.406c1.244 2.719.705 5.555-.504 8.549-1.207 2.99-1.748 6.248-2.621 9.377-.826 2.953-1.348 6.059-2.631 8.803-3.285 7.032-6.889 13.918-10.438 20.824-1.152 2.244-2.533 4.369-3.795 6.558-2.729 4.735-6.527 8.638-10.096 12.69-4.164 4.727-8.504 9.321-13.051 13.677-3.379 3.235-7.004 6.306-10.883 8.906-8.697 5.833-17.602 11.352-27.727 14.521-3.438 1.075-6.766 2.5-10.2 3.593-8.405 2.675-17.118 3.225-25.743 2.173-12.766-1.558-21.594-8.646-25.697-21.002-1.246-3.751-2.004-7.703-2.596-11.621-.697-4.633-.928-9.334-1.443-13.998-.736-6.654-1.725-13.236-4.605-19.408-2.992-6.417-4.95-13.191-6.002-20.184-1.461-9.684-4.258-19.01-7.037-28.364-2.158-7.264-4.258-14.564-5.203-22.126-.201-1.61-.508-3.213-.86-4.798-.86-3.897-1.333-7.827-1.274-11.826.02-1.44.04-2.927-.273-4.317-.943-4.169-.39-8.222.359-12.35 1.426-7.86 3.775-15.424 6.656-22.849 3.844-9.905 9.602-18.572 16.94-26.21 2.63-2.735 5.374-5.362 7.966-8.132 8.777-9.381 20.045-13.96 32.254-16.549C76.914.815 89.06.543 101.144 1.31c17.156 1.089 33.602 5.204 48.223 14.64 9.295 5.998 16.438 13.992 20.248 24.689 3.236 9.087 4.844 18.491 6.143 27.986.49 3.576.961 7.167 1.701 10.695 2.012 9.592 2.947 19.253 2.66 29.063-.234 8.01-1.846 15.774-3.797 23.478-.468 1.848-1.754 3.492-2.826 5.545zm-59.303-63.35c1.936.604 1.936.604 2.516-.924l-2.516.924z" fill="#000"/></svg>