<svg width="150" height="111" fill="none" xmlns="http://www.w3.org/2000/svg"><path d="M61.177 84.002c-.357 2.361-.732 4.719-1.068 7.083-.629 4.444-1.986 8.694-3.453 12.911-.717 2.061-1.975 2.776-3.982 2.406-2.11-.391-4.29-3.361-3.965-5.498.133-.859.416-1.701.682-2.535.846-2.656 1.86-5.271 2.545-7.969.822-3.236 1.363-6.545 2.053-9.816.146-.695.244-1.486.646-2.021.537-.711 1.004-1.692 2.193-1.594 1.268.104 2.434.526 2.934 1.734.694 1.676 1.491 3.365 1.415 5.299zm80.631-18.533c-.633-.556-1.043-.635-1.766-.402-1.789.574-3.209-.055-4.295-1.599-.568-.81-.861-1.64-.514-2.692.828-2.5 1.604-5.02 2.299-7.559.695-2.54 1.264-5.115 1.896-7.671.631-2.556 1.246-5.118 1.93-7.661.316-1.181.93-1.597 2.115-1.379 1.303.24 2.691.434 3.377 1.864.096.201.322.354.516.491 1.244.891 1.248 2.107.945 3.43-.551 2.412-1.078 4.829-1.623 7.242-1.092 4.836-2.406 9.602-4.428 14.149-.212.483-.267 1.037-.452 1.787zm-26.493 24.905c.598 2.411.037 4.463-.668 6.526-1.375 4.017-2.955 7.939-5.023 11.653-.307.55-.676 1.064-1.033 1.622-2.428-.188-4.797-.118-6.5-2.293-1.262-1.614-1.359-2.793-.482-4.738 1.67-3.709 3.188-7.488 4.75-11.246.275-.662.445-1.367.691-2.043.648-1.79 1.037-2.01 2.818-1.626 3.582.771 3.582.771 5.447 2.145zm27.543 13.453c-1.381.12-2.551.312-3.719.306-2.432-.014-4.586-2.462-4.352-4.966.088-.94.391-1.876.701-2.777 1.227-3.548 2.492-7.068 3.096-10.81.486-3.016 1.662-3.615 4.521-2.59 1.033.369 2.025.849 2.674 1.891.582.939 1.373 1.747 1.967 2.482-.925 5.798-2.423 11.235-4.888 16.464zm-.916-.952c-.01.117-.02.235-.027.354.039-.055.105-.107.107-.164.004-.062-.05-.127-.08-.19zm-59.703-3.236c-1.578-.14-2.857-.133-4.08-.391-1.965-.413-3.545-3.564-2.902-5.617.38-1.215.875-2.396 1.221-3.621 1.125-3.984 2.197-7.983 3.305-11.973.342-1.223.705-2.341 2.045-3.02 2.119-1.072 4.107-.35 4.812 1.864.74 2.323.354 4.61-.188 6.837-.691 2.848-1.037 5.805-2.367 8.477.277 2.655-2.133 4.565-1.846 7.444zm28.586-28.555c-.27.029-.562-.028-.729.092-1.689 1.215-3.174.602-4.545-.535-1.412-1.17-2.377-2.591-1.979-4.566.455-2.262.957-4.516 1.373-6.785.486-2.662 1.053-5.325 1.297-8.014.217-2.361 1.295-3.057 3.51-2.31 1.205.406 2.424.655 3.346 1.68 1.301 1.45 1.754 2.904 1.447 4.969-.6 4.031-1.455 7.988-2.475 11.918-.296 1.143-.778 2.24-1.245 3.551zM29.663 97.127c-.61-.068-1.268-.316-1.824-.17-1.463.383-2.396-.183-3.287-1.279-1.01-1.245-1.605-2.547-1.305-4.166.539-2.896 1.014-5.807 1.639-8.686.674-3.109 1.469-6.192 2.244-9.279.562-2.242 2.344-2.918 4.125-1.424 1.816 1.523 3.008 3.28 2.379 6.006-1.031 4.479-1.701 9.043-2.547 13.566-.1.541-.377 1.047-.514 1.584-.306 1.211-.578 2.433-.91 3.848zM149.825 8.365c-1.83 5.148-3.555 10.208-5.436 15.21-1.033 2.752-5.371 3.725-7.637 1.854-1-.826-1.205-1.533-.77-2.712 1.934-5.243 3.859-10.49 5.818-15.724.324-.866.41-2.064 1.533-2.255 1.283-.219 2.518.234 3.549 1.044.621.49 1.145 1.102 1.729 1.64.292.266.624.488 1.214.943zM8.466 24.099c-1.486.068-2.59.228-3.676.142-1.35-.107-2.305-.96-3.084-2.04-.693-.963-.492-1.863-.15-2.92 1.076-3.327 2.115-6.672 2.971-10.061.484-1.919.594-3.935.842-5.912.197-1.575.996-2.288 2.508-2.068 1.645.239 2.957.931 3.668 2.597.73 1.712 1.322 3.376.381 5.187-.072.139-.143.304-.137.454.131 3.39-1.354 6.405-2.193 9.571-.437 1.649-.749 3.33-1.13 5.05zm73.804 32.62c-1.03.139-1.882.123-2.64.385-1.252.431-2.176.02-2.975-.865-1.115-1.24-1.684-2.52-1.072-4.327a70.767 70.767 0 003.25-14.658c.08-.71.227-1.417.408-2.109.314-1.207 1.066-1.689 2.279-1.532 2.725.351 4.639 3.082 4.145 5.817-.68 3.756-1.262 7.531-1.971 11.281-.381 2.009-.94 3.986-1.423 6.008zM7.603 107.088c-1.256.074-2.047-.303-2.512-1.434-.354-.863-1.02-1.611-1.605-2.365-1.154-1.485-1.221-3.027-.455-4.708a130.075 130.075 0 002.539-5.929c.553-1.396.986-2.841 1.447-4.271.146-.453.197-.936.314-1.398.443-1.734 1.203-2.592 2.334-2.654 1.389-.077 3.096 1.189 3.46 2.735 1.13 4.783.476 9.3-2.144 13.505-.273.441-.342 1.008-.516 1.514-.098.291-.174.602-.33.861-.84 1.402-1.702 2.79-2.532 4.144zm20.955-71.631c2.379-1.14 4.389-.515 5.47 1.627 1.356 2.682 1.485 2.703.966 5.85-.662 4.01-1.551 7.983-2.365 11.967-.078.373-.236.857-.518 1.037-.86.55-.863 1.426-.926 2.266-.816-.057-1.508-.137-2.2-.146-1.497-.023-2.067-.457-2.66-1.836-.54-1.266-.27-2.516-.095-3.771.629-4.501 1.285-8.998 1.916-13.499.166-1.181.28-2.368.412-3.495zm86.341-27.779c-1.115 5.131-2.172 9.999-3.215 14.792-.959.271-1.908.5-2.832.808-1.604.533-2.756-.324-3.859-1.238-.982-.814-1.564-1.88-1.088-3.176 1.521-4.143 2.008-8.51 2.863-12.798.514-2.57 1-2.868 3.553-2.368 1.742.341 2.99 1.375 3.912 2.848.289.464.557.945.666 1.132zM54.438 63.111c-.582 0-1.047-.029-1.508.006-2.93.215-4.95-1.996-4.477-4.93.062-.39.217-.768.334-1.148 1.266-4.131 2.219-8.331 2.803-12.613.064-.475.133-.95.229-1.419.389-1.892.904-2.13 2.807-1.961 2.137.189 4.186 2.969 3.79 4.97-.538 2.74-.882 5.523-1.517 8.239-.617 2.631-1.502 5.199-2.26 7.797-.085.298-.117.612-.201 1.059zm-43.921-9.823C9.3 54.703 8.39 56.267 8.23 58.17c-.074.87-.506 1.284-1.377 1.308-.795.02-1.586.121-2.381.134-2.424.038-4.346-2.324-3.746-4.65.219-.842.604-1.645.934-2.457 1.107-2.736 2.207-5.476 3.35-8.198.41-.977.393-2.388 1.844-2.511 1.562-.133 3.129.2 4.119 1.494.812 1.062 1.365 2.34 1.916 3.574.168.374.064.973-.117 1.378-.643 1.438-1.377 2.835-2.062 4.255-.12.25-.158.537-.234.808l.04-.018zM60.892 3.119c-.471 2.107-.934 4.232-1.422 6.351a1043.84 1043.84 0 01-2.271 9.715c-.205.855-.42 1.713-1.723 1.323-.432-.129-1.004.322-1.525.365-2.12.177-3.688-1.096-3.885-3.194a6.174 6.174 0 01.182-2.113c.889-3.385 1.869-6.746 2.742-10.134.37-1.441 1.21-2.57 2.107-3.675.854-1.052 2.018-1.264 3.176-.553.869.532 1.656 1.202 2.619 1.915zm-28.83 15.449c-1.064 0-1.86-.079-2.637.02-1.004.128-1.668-.272-2.256-1.026-1.217-1.562-1.576-3.129-.789-5.093 1.336-3.333 2.47-6.75 3.592-10.162.381-1.154.902-2.219 2.123-2.295 1.254-.078 2.447.364 3.318 1.521 1.377 1.83 2.014 3.649 1.092 5.938-1.22 3.029-2.223 6.145-3.369 9.206-.246.661-.699 1.244-1.074 1.891zm50.371 5.57c-.957.108-1.914.161-2.848.333-2.488.46-4.529-1.66-3.92-4.146.131-.537.414-1.035.611-1.557 1.154-3.056 2.314-6.11 3.453-9.17.771-2.077 1.172-2.316 3.387-1.863.777.16 1.553.343 2.32.544.303.08.586.235.838.34.797 1.488.656 2.92.137 4.391-.77 2.172-1.533 4.35-2.199 6.553-.453 1.5-.51 3.131-1.779 4.575z" fill="#000"/></svg>