<svg width="183" height="169" fill="none" xmlns="http://www.w3.org/2000/svg"><path d="M.541 59.96c0-2.357.08-4.718-.016-7.071-.22-5.432.465-10.791 1.344-16.115 1.094-6.635 4.186-12.417 8.15-17.771 3.125-4.218 6.773-7.975 11.074-10.912 5.736-3.917 12.066-6.743 19.13-6.956 4.392-.133 8.804.489 13.21.728 6.984.38 13.744 2.145 20.6 3.307 5.016.85 9.953.504 14.94-.211 10.782-1.547 21.569-3.084 32.386-4.368 5.566-.661 11.17-.092 16.744.518 7.279.796 14.238 2.848 21.053 5.369 2.732 1.011 5.326 2.51 7.805 4.068 2.008 1.264 3.582 3.12 4.273 5.477 1.545 5.27 3.145 10.53 4.469 15.857 1.824 7.334 3.459 14.716 5.084 22.098.672 3.057 1.412 6.147 1.598 9.253.496 8.327.922 16.684-1.277 24.885-1.205 4.486-3.143 8.559-5.787 12.452-2.883 4.241-5.717 8.461-9.521 11.915-5.453 4.95-11.008 9.787-17.527 13.337-1.719.936-3.518 1.725-5.277 2.585-7.668 3.75-15.27 7.644-23.02 11.212-7.936 3.654-16.051 6.911-24.02 10.49-6.179 2.773-12.23 5.826-18.382 8.662-9.785 4.511-19.957 7.559-30.748 8.644-5.992.603-11.934 1.03-17.859-.108-5.37-1.032-9.723-3.681-13.273-8.045-5.467-6.72-7.938-14.604-9.789-22.776-2.045-9.023-2.822-18.203-3.074-27.447-.152-5.584-.658-11.157-1.002-16.735-.043-.686-.098-1.374-.082-2.06.117-5.413-.54-10.767-1.008-16.146-.406-4.679-.084-9.419-.084-14.133-.04-.003-.077-.003-.114-.003zm3.97 38.417l-.565.04c.246 3.911.482 7.823.742 11.733.182 2.739.48 5.473.582 8.215.344 9.394 2.311 18.466 5.225 27.367 1.422 4.344 3.742 8.216 6.387 11.873 1.723 2.383 3.922 4.298 6.572 5.783 4.477 2.512 9.398 2.985 14.248 2.985 4.971 0 9.963-.825 14.904-1.559 9.014-1.339 17.436-4.629 25.674-8.371 4.461-2.026 8.732-4.471 13.203-6.469 6.986-3.123 14.145-5.866 21.094-9.067 8.104-3.734 16.057-7.798 24.082-11.702 3.617-1.759 7.395-3.239 10.85-5.269 7.225-4.244 13.75-9.463 19.426-15.633 3.252-3.532 6.322-7.293 7.168-12.295.098-.571.271-1.188.6-1.649.49-.692 1.039-1.568 1.758-1.83 1.648-.602 2.084-1.876 2.562-3.315 1.162-3.496 1.391-7.139 1.555-10.747.227-4.992.35-10.018.041-14.999-.443-7.168-2.645-14.048-4.109-21.047-.723-3.456-1.668-6.866-2.551-10.287-1.051-4.08-2.189-8.139-3.205-12.229-1.1-4.44-3.959-7.277-7.898-9.348a45.717 45.717 0 00-10.125-3.894c-2.947-.744-5.789-1.965-8.764-2.516-7.627-1.411-15.287-2.459-23.104-1.444-7.875 1.022-15.822 1.534-23.666 2.742-6.686 1.029-13.344 2.16-20.104 2.567-.383.022-.783.016-1.154-.071-2.38-.56-4.75-1.166-7.133-1.72-8.822-2.042-17.809-2.686-26.82-2.938-3.018-.085-6.055.107-9.025 1.047C21.54 7.944 13.457 15.613 7.826 25.782c-4.934 8.911-5.885 18.806-5.203 28.872.105 1.555.035 3.121.021 4.682-.039 4.413-.338 8.84-.086 13.235.49 8.613 1.284 17.205 1.952 25.806z" fill="#000"/></svg>