<svg width="68" height="76" fill="none" xmlns="http://www.w3.org/2000/svg"><path d="M30.844 71.856c1.59-.433 3.188.175 4.922-.946-.586-.413-.975-.922-1.383-.938-6.266-.261-11.275-3.844-16.703-6.285-3.348-1.505-6.627-3.167-9.88-4.865a27.768 27.768 0 01-4.2-2.731C.754 53.866.37 51.31 1.832 48.027c1.971-4.425 4.684-8.367 7.619-12.152 3.816-4.92 7.625-9.875 11.82-14.468 3.22-3.525 7.074-6.461 10.56-9.753 2.921-2.76 6.032-5.253 9.53-7.218 2.156-1.21 4.367-2.367 6.658-3.286 3.73-1.497 7.314-.499 9.97 2.518.315.36.62.731.954 1.076 3.387 3.5 4.98 7.687 5.145 12.552.098 2.784.627 5.553.941 8.331.215 1.903.404 3.809.586 5.716.363 3.817.697 7.636 1.076 11.452.645 6.522 1.215 13.061.738 19.607-.207 2.84-.795 5.713-1.654 8.429-1.102 3.475-3.484 5.067-7.64 4.976-6.614-.146-13.272-.422-19.767-1.982-2.518-.608-5.016-1.31-7.524-1.969zm11.744-16.854l.566-.184c-.045-.12-.088-.342-.137-.344-.193-.008-.387.055-.58.092l.151.436z" fill="#000"/></svg>