<svg width="193" height="262" fill="none" xmlns="http://www.w3.org/2000/svg"><path d="M12.504 34.119c-.572-1.312.04-1.91.92-2.08 1.28-.246 2.6-.305 3.906-.371 4.035-.207 8.076-.584 12.105.027 1.05.16 2.076.484 3.1.783 1.594.467 2.311 1.574 2.22 3.389-.534 0-1.13.148-1.614-.023-2.732-.965-5.53-1.318-8.42-1.346-4.032-.041-8.06-.242-12.217-.38zM37.81 4.287c1.55-.908 2.306-1.627 3.181-1.82C45.884 1.381 50.83.68 55.868.934c.91.047 1.602.354 2.02 1.213.412.85-.07 1.879-.945 1.85-5.727-.186-11.398.6-17.094.951-.398.023-.814-.251-2.04-.661zm-4.75 17.256c-2.134 0-4.27.018-6.401-.014-.58-.008-1.17-.125-1.734-.273-.557-.146-.754-1.16-.271-1.451.594-.361 1.234-.764 1.898-.873 4.004-.662 8.039-1.016 12.096-.689a7.534 7.534 0 012.707.754c.416.207.766.928.795 1.436.037.668-.574.961-1.234.963-2.617.004-5.236 0-7.854 0l-.001.147zm80.331 169.41v2.482c-.383.162-.604.35-.797.324-4.242-.535-8.488-1.064-12.662-2.02-.781-.18-1.56-.559-2.221-1.014-.496-.342-.72-1.047-.283-1.58.258-.318.824-.594 1.219-.553 1.295.129 2.568.449 3.861.625 2.719.369 5.449.666 8.166 1.053.922.134 1.818.453 2.717.683zm-93.086-24.947c.035-1.346.504-2.014 1.26-1.969 3.305.203 6.639-1.062 9.926.236.512.203 1.15.064 1.729.121 1.047.102 2.092.232 3.008.338.7 1.104 1.406 1.949.664 3.35l-16.587-2.076zM9.803 44.908c1.172-.291 1.97-.715 2.711-.635 4.13.443 8.248 1 12.365 1.547.455.061.965.207 1.312.486.584.465.836 1.135.54 1.896-.255.645-.778.895-1.419.773-4.662-.885-9.324-1.766-13.973-2.723-.46-.094-.816-.693-1.536-1.344zm21.105 216.33c-2.805-.367-5.77-.752-8.736-1.148-1.537-.205-3.08-.391-4.602-.684-.375-.072-.678-.527-1.014-.809.293-.336.525-.855.891-.975.89-.293 1.857-.625 2.758-.543 3.934.357 7.854.844 11.775 1.318.453.055.98.221 1.295.521.303.289.557.854.49 1.238-.06.35-.53.768-.908.893-.55.183-1.177.129-1.949.189zm65.598-55.916c.914-1.473 1.82-1.869 2.99-1.57 3.461.885 6.953 1.51 10.547 1.457.555-.008 1.195.215 1.645.541.309.225.521.838.461 1.23-.055.365-.49.906-.822.957-1.283.199-2.611.432-3.887.293-3.398-.369-6.758-1.018-9.977-2.23-.318-.119-.576-.4-.957-.678zm49.08-118.703c-4.158-.188-8.318-.352-12.473-.58-.826-.045-1.646-.303-2.453-.516-.883-.234-1.367-.844-1.197-1.48.193-.721.764-.811 1.404-.756.715.061 1.432.125 2.146.145 1.549.041 3.096.066 4.645.074 1.9.01 3.807-.094 5.701.02 1.856.113 2.495 1.109 2.227 3.093zm-27.316 32.453c-.859.133-1.43.279-2.004.297-4.049.129-8.08-.129-12.051-.906-1.357-.264-2.641-.969-3.906-1.582-.236-.115-.215-.756-.365-1.365 2.842.279 5.416.471 7.973.801 2.467.318 4.895.881 7.426.576.762-.09 1.652.225 2.354.596.328.173.354.925.573 1.583zm15.425-1.818c-.334-1.713.236-2.518 1.527-2.633 1.902-.17 3.814-.201 5.723-.293 1.184-.059 2.369-.197 3.549-.16 1.303.039 2.635.102 3.883.43.559.146 1.043.902 1.381 1.488.383.662-.229 1.568-.963 1.508-3.334-.275-6.689-.43-9.988-.936-1.743-.267-3.28.258-5.112.596zM24.21 239.361c-.27-1.195.56-1.678 1.343-1.736 4.148-.309 8.293-.305 12.373.688.227.055.457.143.654.268.54.34.93.85.646 1.465-.16.348-.666.758-1.016.756a71.117 71.117 0 01-5.674-.223c-2.48-.203-4.955-.492-7.428-.783-.321-.038-.618-.294-.897-.435zM4.027 185.873c3.188.135 5.658.197 8.121.367.816.057 1.625.354 2.416.604 1.201.381 1.584 1.346 1.64 2.496.034.754-.737 1.424-1.435 1.127-3.566-1.516-7.426-1.445-11.145-2.125-.574-.105-1.14-.295-1.684-.51-.184-.072-.422-.373-.395-.527.053-.318.203-.793.432-.873.888-.315 1.822-.5 2.05-.559zM94.79 219.41c2.288-1.375 4.292-1.441 6.501-.922 2.08.49 4.27.486 6.393.824 1.842.293 2.002.617 2.092 2.971-3.331.363-11.792-1.203-14.987-2.873zm10.689 39.123c-5.154.934-10.25-.146-15.664.703.305-.828.355-1.443.688-1.752.496-.461 1.18-.967 1.805-.996a288.35 288.35 0 0111.762-.303c.469-.002 1.057.506 1.369.936.211.293.04.865.04 1.412zM13.42 132.031c-4.078-.678-7.96-1.303-11.828-1.988-.4-.072-.955-.441-1.041-.775-.086-.33.236-.912.553-1.162.447-.355 1.074-.748 1.594-.707 3.092.236 6.182.555 9.258.947.525.066 1.088.537 1.457.971.669.788.866 1.701.007 2.714zm82.574 43.393c4.701-.596 8.977 1.357 13.355 2.41.625 1.582.625 1.582.297 3.002-.215.053-.461.203-.643.145-2.912-.928-5.992-1.291-8.732-2.842-.971-.549-2.32-.379-3.46-.684-.92-.248-1.366-.9-.817-2.031zm-75.672-70.149c1.271-.703 2.75-.719 4.094-.494 2.338.389 4.615 1.127 6.93 1.672 1.07.254 1.557 1.066 1.94 1.93.161.367.142 1.006-.083 1.301-.22.289-.842.479-1.229.404-1.283-.246-2.545-.607-3.803-.967a322.569 322.569 0 01-6.166-1.822c-.933-.287-1.823-.668-1.683-2.024zm31.342-34.308c.508-1.465 1.785-1.438 2.732-1.596 2.738-.455 5.473.031 8.137.656.67.158 1.242 1.023 1.711 1.672.418.576-.178 1.557-.93 1.527-1.785-.064-3.582-.127-5.348-.38-1.768-.253-3.512-.702-5.248-1.138-.394-.099-.716-.493-1.054-.741zm46.146 86.595c1.374.119 2.769.145 4.128.375 2.684.457 5.352 1.014 8.02 1.557.451.092.971.221 1.283.516.299.281.559.84.49 1.213-.068.369-.52.734-.889.963-.277.17-.695.184-1.041.16-3.924-.273-7.77-.908-11.35-2.65-.814-.397-.8-.426-.642-2.134zM4.695 201.521c2.182.566 5.08 1.275 7.95 2.082 1.3.365 2.403 1.137 2.954 2.424.146.342-.025.92-.24 1.275-.125.209-.68.352-.945.256a938.437 938.437 0 01-11.055-4.068c-.213-.078-.443-.24-.561-.428-.17-.271-.395-.652-.318-.898.084-.266.463-.48.76-.625.194-.092.467-.018 1.455-.018zm36.731-71.126c1.19 0 2.385-.033 3.574.01 1.014.035 1.865.477 2.365 1.377.21.383.357.902.29 1.32-.12.73-.8.828-1.4.781-2.372-.188-4.74-.422-7.11-.629-1.305-.115-2.621-.158-3.912-.357-.344-.053-.723-.518-.875-.881-.076-.18.268-.738.523-.822 1.775-.586 3.482-1.59 5.482-1.062.342.09.709.088 1.064.129l-.001.134zm15.23 123.441c.242-2.396 1.156-3.58 2.689-4.066 3.44-1.094 7.006-1.234 10.586-.924.436.037.94.285 1.244.6.29.305.55.855.479 1.232-.066.354-.537.746-.918.893-.416.16-.934.064-1.406.066-1.781.008-3.564-.006-5.348.02-2.402.034-4.714.462-7.326 2.179zm4.035-14.619c-.047-.428-.176-.734-.078-.848 1.59-1.861 3.482-3.271 5.996-3.516 1.889-.184 3.791-.234 5.689-.289.461-.014.936.164 1.389.307.998.316 1.523.986 1.432 1.77-.084.74-.783 1.119-1.941.938-3.865-.607-7.576-.061-11.188 1.381-.396.157-.853.171-1.299.257zm57.932-217.738c.953-.074 1.912-.102 2.857-.234 1.121-.158 1.801.492 2.438 1.219.611.699.219 1.748-.738 1.885-2.365.334-4.73.693-7.137.381-1.531-.199-3.08-.256-4.604-.498-.371-.059-.875-.559-.934-.918-.053-.312.381-.963.699-1.037a52.916 52.916 0 014.906-.891c.822-.113 1.672-.02 2.51-.02.001.036.003.075.003.113zM147.104 103c-2.9-.646-5.42-1.293-7.973-1.754-2.426-.438-4.887-.678-7.277-.998-.371-.998.107-1.594.846-1.717 1.162-.193 2.385-.305 3.547-.16 2.949.365 5.895.809 8.809 1.387 1.639.326 1.739.656 2.048 3.242zm-36.764 25.545c.684 1.178.691 1.658.039 2.033-1.697.977-3.615 1.168-5.486 1.426-1.4.193-2.85.154-4.266.053-.668-.047-1.381-.381-1.934-.779-.287-.207-.381-.842-.354-1.27.018-.256.406-.648.682-.701 1.277-.242 2.568-.479 3.865-.547 2.481-.133 4.969-.151 7.454-.215zm-77.481 66.039c1.572-1.445 2.854-1.715 4.16-1.662 3.078.123 6.156.299 9.223.584.6.057 1.254.605 1.688 1.1.447.51.875 1.305.229 1.902-.36.332-1.088.477-1.598.393-1.635-.27-3.27-.6-4.855-1.068a21.631 21.631 0 00-6.68-.889c-.534.009-1.073-.171-2.167-.36zm44.967-6.854c-.947-.139-2.24-.283-3.516-.521-1.857-.344-3.703-.754-5.553-1.141-.113-.023-.217-.092-.328-.125-.68-.203-1.182-.842-.898-1.254.244-.354.682-.811 1.033-.812 1.293-.004 2.635-.018 3.87.303 2.33.598 4.667.695 7.038.619.467-.016.96-.016 1.398.121.613.191 1.014.703.869 1.35-.09.404-.418.979-.746 1.062-.903.236-1.866.254-3.167.398zm48.641-120.095c-4.391-.295-8.594-.783-12.941-2.426.439-.59.676-1.205.941-1.22 3.443-.17 6.891-.401 10.328.134 1.229.19 1.904.955 2.068 2.119.057.404-.232.856-.396 1.393zm.402 106.763c.982-1.244 2.477-1.16 3.652-1.117 2.705.098 5.402.561 8.086.98 1.137.178 1.291.635 1.242 2.463-2.312.879-4.68.252-6.984-.016-1.855-.217-3.658-.914-5.463-1.469-.246-.073-.365-.559-.533-.841zM32.857 224.74c-3.363.453-6.553.301-9.729-.33-.93-.184-1.84-.471-2.768-.668-.652-.137-1.211-.453-1.072-1.137.07-.346.627-.684 1.035-.846.426-.168.941-.188 1.41-.154 3.213.23 6.424.479 9.631.754 1.109.094 1.722.666 1.493 2.381zm119.01-188.98c-2.238.289-4.553.625-6.875.875-1.877.203-3.764.33-5.65.428-.281.014-.785-.273-.83-.494-.082-.402-.047-1.01.205-1.262.391-.387.98-.664 1.531-.779 2.434-.504 4.869-1.043 7.332-1.34 1.123-.137 2.348.129 3.459.447.865.246 1.293 1.002.828 2.125zM48.777 59.684c-1.096.318-1.748.697-2.377.66-3.326-.199-6.65-.48-9.971-.783-.844-.078-1.363-.775-1.242-1.443.15-.84.77-1.213 1.51-1.262 1.18-.08 2.39-.18 3.547 0 2.22.346 4.424.824 6.602 1.377.58.146 1.043.761 1.93 1.451zm111.159.492c-.57 1.518-1.959 2.109-3.334 2.279-3.625.445-7.277.693-10.924.949-1.156.082-2.268-.26-3.91-1.057 1.037-.256 1.432-.432 1.83-.439 4.898-.102 9.646-1.039 14.303-2.512.869-.273 1.64-.335 2.035.78zm5.753 29.353c-1.01.484-2.197.416-3.363.4-2.027-.029-4.057-.045-6.076-.182-.803-.053-1.605-.357-2.359-.666-.25-.102-.498-.588-.475-.875.021-.26.395-.68.646-.705 2.957-.297 5.916-.598 8.883-.74.762-.037 1.609.371 2.305.77.66.379.898 1.086.439 1.998zM33.033 216.92c1.451-1.471 2.871-1.227 4.1-1.248 3.311-.057 6.623.104 9.934.213.451.016.988.127 1.32.398.32.262.613.807.574 1.191-.035.346-.525.902-.84.92-1.654.088-3.324.137-4.973.006-2.836-.229-5.662-.588-8.488-.924-.422-.05-.822-.275-1.627-.556zm29.66-49.471c-1.115 1.732-2.998 2.371-4.807 2.635-3.369.49-6.807.752-10.02-.58-.183-1.033.405-1.221.997-1.25 1.301-.068 2.615.033 3.91-.086 2.596-.242 5.213-.436 7.605-1.658 1.032-.528 1.798-.244 2.315.939zM60.418 46.572c-3.643-.32-7.062-.596-10.477-.939-.93-.094-1.945-.236-2.21-1.643.437-.248.913-.748 1.407-.768 2.85-.109 5.703-.139 8.555-.125 1.252.006 2.404.418 2.84 1.738.155.474-.058 1.065-.115 1.737zm50.113-37.338c1.67.145 2.996.17 4.283.402.916.164 1.854.494 2.645.977.402.244.709.99.691 1.496-.021.633-.652.949-1.307.969-.477.014-.967.043-1.43-.047-2.807-.545-5.613-1.092-8.402-1.721-.354-.078-.801-.605-.855-.977-.115-.764.611-.93 1.174-1.07.453-.111.943-.109 1.418-.104.715.007 1.43.058 1.783.075zM78.64 146.537c-4.366.291-8.718.402-12.972-.994-.461-.152-.988-.4-.793-.928.125-.336.654-.688 1.035-.73.938-.105 1.904-.129 2.842-.018 2.717.318 5.414.65 8.168.318 1.455-.175 1.805.397 1.72 2.352zm54.524-19.09c.098-.689.01-1.26.242-1.463.414-.359 1.016-.678 1.551-.697 2.252-.084 4.508-.092 6.76-.043 1.172.023 2.35.166 3.508.359.557.094 1.164.328 1.574.693.285.254.387.848.355 1.273-.018.242-.439.578-.73.646a5.523 5.523 0 01-1.76.141c-1.42-.129-2.871-.191-4.238-.549-2.309-.604-4.604-.987-7.262-.36zm-64.232-5.314c.246-1.4 1.283-1.615 2.19-1.705 2.13-.213 4.278-.277 6.421-.359 1.158-.043 2.074.469 2.717 1.438.463.697-.002 1.875-.814 1.988-.584.082-1.186.082-1.779.061-2.978-.107-5.856-.765-8.735-1.423zm32.613-45.603c2.717.118 5.432.22 8.146.37.588.033 1.23.127 1.732.402.461.252 1.018.752 1.084 1.207.105.752-.625.885-1.24.857-3.199-.137-6.379-.54-9.592-.508-1.035.012-2.088-.4-3.105-.713-.242-.076-.529-.539-.508-.799.021-.258.393-.674.637-.695.941-.08 1.895-.03 2.844-.03l.002-.092zm-72.213 75.624c.283-.693.354-1.482.719-1.66 3.061-1.488 6.139-1.268 9.164.18.199.096.398.293.492.492.145.311.369.754.252.975-.191.359-.629.822-.969.83-2.008.037-4.021.027-6.021-.111-1.147-.081-2.276-.432-3.637-.706zM121.75 2.961c1.188-.693 1.766-1.324 2.32-1.305 2.717.09 5.406-.145 8.104-.357.457-.035.994-.008 1.371.207.355.201.723.668.766 1.055.043.369-.223.92-.531 1.152-.457.34-1.072.654-1.619.652-2.6-.01-5.201-.078-7.795-.248-.643-.041-1.257-.535-2.616-1.156zM13.066 120.301c1.21-.076 1.89-.23 2.535-.139 2.688.385 5.365.832 8.043 1.285.455.076.977.186 1.307.469.31.266.594.805.545 1.18-.05.371-.518.693-.822 1.018-.068.072-.225.1-.336.092-3.78-.259-7.725-.224-11.272-3.905zm70.268-60.076c1.535-1.348 2.662-1.699 3.881-1.613 2.848.2 5.691.47 8.537.695.75.061 1.432.264 1.803.953.15.28.205.721.09 1-.107.262-.508.588-.76.572a81.212 81.212 0 01-4.951-.457c-2.676-.33-5.344-.713-8.6-1.15zm20.539 91.007c-1.895-.148-3.092-.189-4.275-.352a7.894 7.894 0 01-2.045-.598c-1.602-.703-2.328-1.598-1.846-2.182.818-.988 1.752-.252 2.619-.064 1.428.309 2.814.246 4.262.045 1.143-.16 2.373.012 3.512.273.379.086.729.869.85 1.391.15.645-.281 1.115-.934 1.291a5.283 5.283 0 01-1.055.188c-.596.03-1.193.008-1.088.008zm24.574 51.252c.59-.504.977-1.121 1.426-1.172 3.07-.346 6.152-.617 9.236-.787.42-.023 1.012.559 1.283 1.006.334.549.119 1.344-.49 1.484-1.258.293-2.584.533-3.859.453-2.443-.152-4.988.3-7.596-.984zM96.658 33.248c.62.051 1.227.041 1.803.16 1.295.266 2.543.275 3.879.096 1.105-.148 2.338.262 3.432.654.367.133.631.971.646 1.494.008.29-.635.89-.918.852-3.285-.44-6.664-.062-9.877-1.105-.223-.072-.496-.145-.63-.31-.204-.257-.468-.624-.415-.884.06-.293.402-.633.699-.748.43-.166.932-.148 1.38-.209zM57.031 21.033c2.91.1 5.03 1.836 7.453 2.713 1.092.395 2.082 1.135 3.023 1.844.26.197.293.867.211 1.275-.045.227-.547.521-.832.512-.703-.025-1.475-.057-2.088-.355a141.39 141.39 0 01-6.957-3.637c-.714-.399-1.323-1.045-.81-2.352zm122.365 70.99c1.314-.824 2.547-.455 3.707-.61 1.525-.206 3.088-.276 4.566-.66 1.486-.388 2.811.175 4.199.341.23.027.596.555.559.801-.057.383-.326.844-.648 1.053-.373.24-.9.332-1.363.338-2.98.04-5.963.047-8.943.047-.844-.003-1.639-.155-2.077-1.31zM94.244 238.471c.625-1.205 1.44-1.826 2.295-1.912 3.32-.336 6.662-.461 9.832.896.92.395 1.609 1.033 1.281 2.426-2.158-.373-4.328-.764-6.502-1.121-2.17-.356-4.402.088-6.906-.289zm37.24-79.871c-.273-1.018.018-1.598.871-1.746.578-.1 1.188-.09 1.775-.035 2.828.26 5.652.547 8.477.838.227.023.539.074.645.229.254.367.594.824.547 1.203-.041.338-.574.904-.852.883a258.304 258.304 0 01-8.826-.863c-.914-.103-1.812-.345-2.637-.509zm-8.213 99.695c-.145-1.301.643-1.693 1.361-2.039.404-.195.93-.168 1.402-.188 2.85-.121 5.699-.234 8.549-.33.467-.016 1.029-.066 1.387.156.443.275.898.775 1.025 1.262.17.652-.348 1.064-1.002 1.199-.23.049-.469.094-.705.09-4.013-.045-8.026-.099-12.017-.15zm-54.97-156.336c-.385-.863-.055-1.518.715-1.701 1.479-.352 2.93-.85 4.525-.658 1.514.18 3.061.074 4.59.135.457.018.961.076 1.352.287.531.287.957.824.695 1.455-.154.369-.621.844-.967.859a74.636 74.636 0 01-6.021.051c-1.639-.057-3.272-.28-4.889-.428zM127.131 219c.266-.529.357-1.082.656-1.24 1.381-.727 2.871-1.123 4.438-.746 1.266.305 2.525.664 3.748 1.107.525.189 1.078.568 1.387 1.018.299.436.496 1.121.379 1.611-.162.688-.93.65-1.496.549-.572-.104-1.105-.398-1.664-.58-1.918-.617-3.814-1.314-5.875-1.32-.44-.003-.878-.215-1.573-.399zM75.744 24.383c.461-.977.543-1.576.846-1.725 2.727-1.336 5.615-1.973 8.648-1.57.455.061.973.641 1.205 1.109.287.572-.354 1.344-1.148 1.479-1.529.262-3.06.557-4.604.682-1.418.115-2.85.025-4.947.025zm99.942 115.972c-1.381 1.105-2.799 1.141-4.215.951a81.36 81.36 0 01-5.887-1.002c-.311-.064-.771-.723-.701-.986.092-.35.615-.613.994-.846a.915.915 0 01.688-.068c1.285.451 2.598-.121 3.818.061 1.197.178 2.268.141 3.443-.031 1.043-.153 1.684.644 1.86 1.921zm-18.672-85.974c-2.227-.16-4.455-.299-6.676-.51-.236-.021-.582-.451-.604-.715-.023-.27.227-.736.467-.824 2.701-1.004 5.488-1.332 8.299-.611.598.152 1.107.811 1.555 1.324.359.412-.061 1.379-.574 1.406-.82.045-1.645.012-2.469.012l.002-.082zM136.078 17.74c1.076-.766 2.396-1.096 3.811-1.324 1.375-.221 2.816-.072 4.121-.83.674-.393 1.373.02 1.883.594.746.844.477 2.02-.566 2.232-1.506.309-3.023.6-4.551.758a22.242 22.242 0 01-3.871.049c-.612-.043-1.01-.565-.827-1.479zm-25.609 83.178c.516 1.287.479 1.912-.234 2.146-3.428 1.129-6.877 1.775-10.287-.057-.25-.135-.564-.66-.486-.797.207-.357.604-.611.943-.881.076-.061.234-.057.344-.031 3.28.784 6.532.44 9.72-.38zm33.623 45.264c-1.871-.564-3.445-1.074-5.039-1.512-1.828-.5-3.668-1.076-5.414-.049-1.088-.871-.688-1.596.031-2.139.447-.336 1.094-.598 1.641-.578 2.021.064 4.047.203 6.057.43 1.25.141 2.191.971 2.846 1.979.225.351-.05 1.031-.122 1.869zm-17.19 99.425c.381-.445.598-.945.941-1.059 2.961-.969 6.045-1.152 9.129-1.277.316-.012.658.219.961.389.609.34.604 1.482-.012 1.805-.305.16-.646.336-.977.35-2.963.119-5.93.217-8.895.279-.295.008-.596-.244-1.147-.487zm2.307-54.785c3.029-.445 5.557-.967 8.107-1.141 1.824-.125 2.062.361 2.203 2.869-3.143.375-6.262.24-9.359-.434-.234-.052-.383-.499-.951-1.294zM72.502 76.393c.363-.615.494-1.154.809-1.299.625-.291 1.352-.51 2.033-.502 1.79.018 3.592.096 5.369.309.785.096 1.58.488 2.26.92.283.182.467.887.348 1.232-.123.352-.652.594-1.047.807-.186.102-.473.062-.705.025-2.915-.473-5.827-.957-9.067-1.492zm-26.225 73.136c.826-.047 1.676.008 2.475-.164 1.383-.301 2.256.451 3.074 1.32.199.211.283.693.188.971-.096.279-.457.5-.748.67-.189.109-.457.098-.693.107-2.742.121-5.35-.73-8.012-1.178-.297-.049-.711-.695-.68-1.029.031-.332.533-.852.867-.883 1.166-.109 2.35-.041 3.527-.041l.002.227zm28.883 15.397c1.3 0 2.602-.057 3.896.016 1.281.07 1.785 1.006 2.047 2.119.14.594-.38 1.326-.926 1.219-2.666-.529-5.33-1.068-7.975-1.691-.283-.068-.529-.701-.59-1.104-.025-.178.44-.6.705-.621.941-.078 1.895-.029 2.842-.029l.001.091zM87.545 6.662c-.807-.064-1.523-.084-2.23-.186-.82-.119-1.55-.9-1.255-1.406.26-.449.816-.951 1.29-1.006 1.532-.178 3.087-.119 4.626-.234.945-.07 1.875-.365 2.82-.41.383-.018.953.262 1.14.582.353.602-.003 1.232-.58 1.469-.981.4-2.015.707-3.054.918-.93.187-1.894.193-2.757.273zm-60.668 80.93c.422-1.299 1.188-1.553 2.018-1.732 2.299-.498 4.436.318 6.605.83.295.07.596.408.748.701.146.279.215.697.11.98-.101.275-.481.666-.704.645-2.908-.274-5.888-.159-8.777-1.424zm93.965-39.106c.967-.375 1.578-.863 2.025-.744 1.996.541 4.027.092 6.012.387.529.08 1.148.396 1.469.805.318.41.557 1.176.381 1.596-.164.387-.918.715-1.424.734-2.293.09-5.965-1.1-8.463-2.778zM44.715 83.504c1.854.193 3.512.275 5.129.582.604.113 1.207.666 1.619 1.174.219.27.135.912-.018 1.305-.088.221-.615.424-.91.385a165.773 165.773 0 01-7.326-1.123c-.309-.057-.734-.641-.727-.971.01-.373.369-.9.717-1.066.508-.243 1.141-.226 1.516-.286zM55.59 116.66c-2.193-.607-4.127-1.119-6.041-1.691a2.955 2.955 0 01-1.191-.738c-.201-.203-.312-.648-.238-.924.078-.289.39-.664.662-.727 2.04-.471 3.994.131 5.924.664.937.26 1.212 1.36.884 3.416zm27.439-69.174c.018-.355-.062-.664.055-.791 2.072-2.24 4.893-2.143 7.596-2.322.318-.021.885.518.955.873.064.33-.311 1.027-.611 1.104-2.614.673-5.23 1.457-7.995 1.136zM56.36 203.174c.183-.141.376-.412.534-.395 2.336.271 4.676.529 6.992.922.504.084 1.023.609 1.34 1.066.199.287.037.826.037 1.523-2.789-.557-5.318-1.016-7.824-1.588-.668-.151-1.324-.597-1.078-1.528zm106.73-87.879c.137-.426.146-.762.283-.826a5.304 5.304 0 011.314-.396c1.844-.32 3.686-.674 5.541-.879.506-.057 1.203.221 1.557.592.344.361.514 1.053.461 1.568-.027.271-.693.678-1.076.682a133.16 133.16 0 01-7.037-.119c-.371-.017-.727-.425-1.043-.622zm-43.596 23.285c-1.305 0-2.609.037-3.908-.035-.227-.014-.574-.477-.6-.756-.027-.283.25-.844.434-.861 2.361-.229 4.729-.438 7.098-.49.35-.008.816.775 1.047 1.275.242.52-.324 1.316-.861 1.295-1.07-.045-2.139-.158-3.209-.244l-.001-.184zm-63.306 79.504c.805-.264 1.555-.73 2.293-.711 2.125.061 4.246.299 6.365.514.322.033.766.24.896.496.189.377.254.895.164 1.307-.053.246-.568.627-.768.57-2.828-.803-5.85-.605-8.619-1.674-.089-.035-.132-.191-.331-.502zM179.783 77.059c-1.615-.307-3.59-.658-5.549-1.088-.23-.051-.516-.545-.504-.82.012-.281.322-.744.566-.791 2.324-.436 4.678-1.01 6.799.689.504.402.936.865.562 1.465-.193.314-.754.41-1.158.584-.097.041-.233-.008-.716-.039zM85.77 208.861c-2.515-.197-4.735-.33-6.94-.578-.496-.055-.947-.514-1.42-.789.217-.379.303-.727.447-.752 2.42-.438 4.854-.717 7.3-.205.206.043.405.248.544.426.137.178.262.414.268.629.006.326-.094.654-.198 1.269zm82.728-102.591c.359-.334.504-.582.691-.623 1.791-.381 3.531.08 5.266.432.24.049.521.539.541.842.02.281-.264.816-.455.836-1.053.109-2.123.176-3.176.098-1.066-.08-2.07-.439-2.867-1.585zm-13.978 23.8c.49-.453.809-.982 1.076-.957a34.58 34.58 0 014.092.646c.232.049.58.629.506.818-.146.371-.516.857-.857.912-1.7.279-3.157-.378-4.817-1.419z" fill="#000"/></svg>