<svg width="110" height="87" fill="none" xmlns="http://www.w3.org/2000/svg"><path d="M18.045.875c1.047.247 2.467.5 3.834.92 3.766 1.154 7.297 2.846 10.705 4.803.484.279.945.611 1.453.841 2.057.931 3.87 2.228 5.672 3.569 1.666 1.241 3.404 2.385 5.115 3.566 1.643 1.134 3.312 2.231 4.932 3.397 5.197 3.743 10.596 7.133 16.342 9.997 4.504 2.245 8.982 4.564 13.137 7.448 2.217 1.538 4.074 3.341 5.12 5.88.185.443.439.855.63 1.295 1.44 3.3 3.725 5.858 6.486 8.175 2.488 2.09 4.986 4.197 7.107 6.752 2.035 2.453 4.172 4.832 6.203 7.3 2.232 2.714 3.555 5.866 4.58 9.157.783 2.511.32 4.887-1.146 7.068-.49.73-.963 1.471-1.439 2.211-.258.404-.49.826-.758 1.223-1.107 1.65-2.662 2.227-4.578 1.816-.779-.168-1.545-.411-2.301-.67-4.355-1.493-8.26-3.81-11.863-6.637-3.527-2.77-7.22-5.298-11.021-7.662-3.393-2.109-6.816-4.169-10.227-6.25-.137-.083-.266-.18-.41-.248-3.758-1.773-7.48-3.631-11.441-4.93-2.21-.725-4.307-1.655-6.381-2.723-3.195-1.644-6.258-3.538-9.582-4.953-1.971-.838-3.74-2.143-5.625-3.19-1.604-.892-3.273-1.667-4.861-2.585-2.281-1.316-4.635-2.554-6.744-4.114-4.305-3.184-8.514-6.513-12.102-10.528-1.76-1.97-3.11-4.246-4.557-6.448-2.223-3.384-2.908-7.222-3.377-11.126-.066-.539.062-1.113.168-1.658.152-.784.389-1.552.549-2.336.854-4.209 3.678-6.623 7.492-8.002 1.406-.509 2.957-.64 4.455-.868 1.339-.202 2.697-.302 4.433-.49zm-1.836 2.016c-2.42-.262-4.752.248-7.045 1.011-1.795.598-3.223 1.65-4.35 3.21-2.398 3.319-2.521 7.055-1.838 10.804.605 3.327 2.127 6.431 4.154 9.101 2.887 3.806 5.898 7.569 9.97 10.264.397.262.7.658 1.08.947 2.413 1.833 4.636 3.924 7.362 5.327 2.557 1.315 5.135 2.598 7.61 4.052 2.897 1.702 5.847 3.282 8.9 4.679 1.017.463 1.958 1.083 2.94 1.618 2.033 1.108 4.062 2.228 6.115 3.3.56.294 1.199.441 1.8.656 2.028.725 4.105 1.339 6.07 2.202 2.778 1.218 5.474 2.616 8.2 3.946.285.14.535.348.805.52 2.354 1.501 4.707 3.004 7.064 4.502 4.588 2.917 9.17 5.865 13.36 9.322 3.655 3.016 7.88 4.82 12.161 6.6 1.152.479 2.217.271 3.121-.545a26.159 26.159 0 002.188-2.217c1.314-1.506 1.934-3.277 1.918-5.287-.023-2.969-1.049-5.672-2.447-8.184-1-1.798-2.383-3.397-3.693-5.005-1.664-2.04-3.422-4.005-5.154-5.989-.418-.479-.86-.95-1.35-1.352-2.037-1.673-4.135-3.273-6.14-4.984-2.442-2.086-4.726-4.32-5.82-7.478-.233-.675-.642-1.287-.933-1.944-.9-2.028-2.354-3.578-4.072-4.944-3.65-2.905-7.77-5.036-11.834-7.259-3.785-2.07-7.641-4.017-11.2-6.48-2.167-1.5-4.384-2.925-6.581-4.38-2.26-1.498-4.53-2.979-6.78-4.489-3.51-2.354-6.755-5.123-10.714-6.763-.072-.03-.14-.079-.21-.118-2.495-1.446-5.15-2.541-7.835-3.577-2.191-.849-4.437-1.33-6.822-1.066z" fill="#000"/></svg>