<svg width="114" height="24" fill="none" xmlns="http://www.w3.org/2000/svg"><path d="M77.29 7.816c-3.78 3.756-7.192 7.153-10.607 10.545-1.284 1.275-2.437 2.665-3.885 3.8-2.516 1.978-5.282 1.638-7.089-.859-2.317-3.208-4.43-6.513-6.724-9.728-.735-1.032-1.402-2.22-2.987-2.586-1.794.814-2.018 2.26-2.394 3.573-.575 2.016-.97 4.071-1.46 6.105-.295 1.223-.494 2.473-.964 3.647-.754 1.871-3.123 2.255-4.77.803-.683-.598-1.25-1.308-1.734-2.027-1.792-2.66-3.496-5.358-5.287-8.019a631.378 631.378 0 00-6.195-9.017c-.325-.468-.835-.848-1.496-1.502-.63.533-1.356.899-1.641 1.426-1.732 3.184-3.83 6.146-6.754 8.7C11.34 14.39 9 15.32 6.149 15.176c-2.706-.137-4.74-1.282-6.074-3.209-.18-.261-.013-.88.264-1.113.275-.232 1.001-.362 1.34-.222.885.368 1.649.926 2.493 1.369 2.83 1.477 4.85 1.39 7.19-.614 2.438-2.085 4.68-4.322 5.966-7.1.479-1.033 1.094-2.029 1.763-2.988.953-1.352 2.793-1.72 4.277-.764 1.043.672 2.01 1.505 2.722 2.419 1.268 1.623 2.535 3.286 3.406 5.068 1.824 3.74 4.324 7.155 6.907 10.544.33.432.83.778 1.574 1.463.54-1.146 1.054-1.982 1.318-2.864.565-1.878.8-3.84 1.547-5.662.575-1.405 1.544-2.766 2.665-3.931 1.602-1.667 3.887-1.672 5.587-.07 1.99 1.871 3.715 3.9 4.86 6.257 1.247 2.55 2.691 5.034 5.109 7.19.69-.204 1.414-.259 1.874-.582 1.018-.707 2-1.486 2.829-2.348 3.547-3.674 7.028-7.394 10.548-11.082 1.242-1.3 2.554-1.627 4.428-.872 1.165.471 2.382 1.106 3.152 1.937 2.032 2.188 3.866 4.507 5.707 6.811.992 1.242 1.838 2.567 2.801 3.93 1.66-.775 1.755-2.057 2.194-3.212.85-2.24 1.651-4.508 2.76-6.662.568-1.101 1.588-2.14 2.69-2.934 3.112-2.244 6.099-2.295 9.65-.44 3.087 1.614 5.299 3.722 6.304 7.43-1.03-.71-1.639-.932-1.847-1.306-1.045-1.868-3.259-2.76-4.963-4.035-3.278-2.449-7.681-1.499-9.377 1.954-.938 1.911-1.53 3.945-2.139 5.957-.52 1.739-.827 3.518-1.265 5.275-.099.399-.315.789-.544 1.155-.862 1.397-2.835 1.718-4.21.676-1.523-1.157-2.409-2.63-3.102-4.217-1.435-3.306-3.947-6.089-6.516-8.822-.573-.615-1.53-.988-2.747-1.746z" fill="#212529"/></svg>