<svg width="93" height="116" fill="none" xmlns="http://www.w3.org/2000/svg"><path d="M79.318 42.42c-1.047.303-1.98-.23-2.873.564.373.226.602.446.869.514 1.77.449 3.203 1.373 4.35 2.806 1.562 1.954 3.455 3.499 5.672 4.71 2.811 1.535 4.508 3.983 5.291 7.094.32 1.276.172 2.362-.812 3.293-2.96 2.797-5.568 5.965-8.828 8.452-.38.29-.723.632-1.062.97a56.75 56.75 0 01-10.959 8.507c-.547.325-1.037.743-1.549 1.124-.514.382-.996.807-1.531 1.154a5617.281 5617.281 0 01-15.301 9.897 339.959 339.959 0 01-5.674 3.575c-.68.419-1.387.805-2.115 1.127-4.111 1.818-7.926 4.123-11.58 6.736-2.34 1.672-4.81 3.162-7.25 4.688-2.777 1.736-5.527 3.529-8.398 5.097-2.756 1.506-5.723 2.448-8.947 2.278-2.14-.113-3.816-1.018-5.09-2.736-1.686-2.271-2.371-4.875-2.467-7.639-.084-2.477-.002-4.959-.05-7.438-.024-1.194-.19-2.386-.274-3.579a88.862 88.862 0 01-.168-2.87c-.131-3.268-.215-6.539-.385-9.806-.109-2.081-.125-4.14.176-6.218.215-1.493.205-3.03.178-4.546-.098-5.214.633-10.355 1.262-15.509.291-2.377.453-4.769.68-7.153.234-2.464.42-4.935.73-7.389.213-1.68.256-3.336.053-5.017a172.843 172.843 0 01-.69-6.664c-.073-.87.01-1.756.058-2.632.088-1.513.258-3.023.297-4.538.064-2.556-.1-5.121.424-7.651.047-.233.062-.48.045-.717-.236-3.226.773-6.157 2.162-8.985.348-.707.814-1.369 1.311-1.985A2.839 2.839 0 019.183.839c3.196.031 6.405-.094 9.585.159 3.21.256 6.205 1.508 9.166 2.721 1.477.605 2.91 1.328 4.32 2.077 2.486 1.32 4.52 3.28 6.758 4.952 1.148.859 2.203 1.847 3.324 2.746 3.506 2.812 6.514 6.143 9.703 9.283a43.16 43.16 0 007.518 5.914c4.545 2.829 8.973 5.851 13.506 8.701 2.041 1.284 4.02 2.612 5.705 4.346.154.166.287.356.55.682zM9.721 1.812l-.467.421c.104.099.236.297.303.277.182-.057.336-.205.5-.316l-.336-.382zm16.427 75.167l-.029-.229c-.107.034-.215.068-.32.104.047.062.082.152.143.177.054.021.136-.033.206-.052zm.764 12.482l-.029.186.172-.061-.143-.125zm-13.24-58.632l.15-.032-.092-.131-.058.163z" fill="#000"/></svg>