<svg width="43" height="122" fill="none" xmlns="http://www.w3.org/2000/svg"><path d="M27.783.28c3.732-.676 6.381.367 8.041 3.247 1.477.226 2.83.228 4.03.658 2.3.825 3.122 2.361 2.571 4.67-.525 2.193-1.189 4.36-1.908 6.5-1.184 3.528-2.465 7.025-3.695 10.54-.26.745-.475 1.508-.697 2.221.893 1.603 1.773 3.056 2.518 4.577.332.682.633 1.536.521 2.246-.365 2.347-.752 4.714-1.438 6.98-3.426 11.325-7.07 22.585-10.404 33.938-3.258 11.104-5.713 22.397-6.729 33.956-.256 2.908-.29 5.835-.48 8.75-.049.764-.293 1.514-.432 2.196-4.137.875-4.514.304-7.125-2.6-1.986-2.207-2.502-4.548-2.666-7.168-.105-1.708-.734-3.026-1.895-4.239-2.01-2.1-3.865-4.348-5.916-6.402-.717-.719-1.176-1.39-1.193-2.375C.82 94.391.722 90.807.698 87.223c-.016-2.493.92-4.94.055-7.507-.287-.853.436-2.01.564-3.046.242-1.974.236-3.988.605-5.934C2.963 65.27 4.05 59.821 5.404 54.408c1.971-7.859 4.184-15.638 6.488-23.396a68.567 68.567 0 012.238-6.39c2.162-5.278 4.404-10.523 6.641-15.77.256-.604.553-1.356 1.06-1.659 2.741-1.637 3.978-4.549 5.952-6.914z" fill="#000"/></svg>