<svg width="260" height="160" fill="none" xmlns="http://www.w3.org/2000/svg"><path d="M259.455 70.69c.094 10.735-1.17 20.786-2.732 30.81-.973 6.239-1.982 12.473-2.93 18.716-.521 3.442-.777 6.936-1.484 10.337-.395 1.902-1.248 3.805-2.289 5.457a16.796 16.796 0 00-2.568 7.459c-.1.991-.176 2-.434 2.955-.924 3.426-3.213 5.502-6.74 5.607-3.979.119-8.006.169-11.947-.298-13.406-1.589-26.85-1.854-40.316-1.487-3.146.086-6.281.607-9.416.977-4.289.505-8.564 1.137-12.859 1.568-4.791.48-9.598 1.07-14.4 1.105-4.303.033-8.611-.592-12.912-.983-2.812-.255-5.648-.431-8.414-.959-5.309-1.014-10.578-.53-15.867-.022-.662.063-1.328.16-1.988.136-10.111-.361-19.787 2.347-29.502 4.464-8.512 1.855-17.008 2.965-25.705 2.588-4.836-.209-9.09-1.827-12.69-5.082-3.94-3.565-7.831-7.186-11.802-10.719-1.611-1.433-3.301-2.805-5.084-4.012-3.941-2.667-6.934-6.08-9.277-10.238-4.77-8.451-8.896-17.114-10.441-26.807a21.015 21.015 0 00-.428-1.948c-1.04-4.021-1.992-8.066-3.152-12.052C2.215 81.85.572 75.405.98 68.658c.17-2.805.576-5.603 1.027-8.379.293-1.799.795-3.574 1.318-5.325 2.39-7.993 3.75-16.181 4.56-24.46.507-5.174 1.718-10.113 3.812-14.881 1.654-3.767 4.016-6.772 7.5-9.054C27.885.872 37.147-.681 47.312 1.49c6.555 1.4 12.744 3.748 19.01 5.955 7.984 2.812 16.119 3.683 24.547 2.364 7.873-1.233 15.781-2.445 23.721-3.02 8.768-.634 17.59-1.032 26.336.805 10.445 2.194 21.018 3.223 31.707 2.901 2.99-.09 5.99.065 8.98-.048 12.377-.473 23.994 2.565 35.406 7.085 6.004 2.377 11.172 5.856 16.016 9.935 4.953 4.169 9.859 8.405 14.619 12.791 1.934 1.781 3.717 3.866 5.062 6.115 2.129 3.558 3.904 7.337 5.697 11.085 1.402 2.937 1.197 6.167 1.271 9.313.033 1.49-.17 2.986-.229 3.919zm-71.143 39.097l-.301-.189-.045.308.346-.119z" fill="#000"/></svg>