<svg width="135" height="206" fill="none" xmlns="http://www.w3.org/2000/svg"><path d="M60.56 1.231c4.367.213 9.174.367 13.969.715 2.473.18 4.928.668 7.38 1.077 3.812.636 7.589 1.614 11.423 1.927 7.65.622 14.77 3.105 21.906 5.617 2.914 1.026 5.805 2.125 8.732 3.117 1.619.549 2.941 1.471 3.846 2.879 1.25 1.945 2.637 3.865 3.48 5.987.711 1.788.801 3.843 1.047 5.794.654 5.193 1.387 10.384 1.797 15.598.172 2.188-.225 4.466-.65 6.646a582.875 582.875 0 01-3.627 17.139 660.624 660.624 0 01-4.096 17.041c-1.504 5.91-3.041 11.815-4.742 17.671-1.148 3.95-2.604 7.811-3.93 11.709-.248.732-.598 1.434-.803 2.176-1.91 6.896-4.936 13.371-7.479 20.029-1.746 4.574-3.594 9.115-5.176 13.746-1.209 3.537-3.148 6.672-4.803 9.969-1.973 3.934-4.174 7.707-6.928 11.148-.268.334-.564.672-.732 1.059-1.666 3.852-4.453 6.924-7.076 10.098-2.572 3.113-5.146 6.242-7.943 9.15-7.54 7.838-16.703 12.5-27.596 13.586-.512.051-1.04.105-1.543.039-3.56-.469-7.113-.963-10.668-1.459-5.316-.744-10.412-2.352-15.31-4.438-3.376-1.438-6.495-3.48-9.718-5.275-.674-.373-1.264-.898-1.941-1.262-4.66-2.498-7.256-6.498-8.19-11.574-.948-5.166-1.071-10.402-1.005-15.654.066-5.152-.13-10.307-.146-15.461-.014-4.893.059-9.787.084-14.68.033-6.094-.023-12.189.105-18.283.135-6.348-.41-12.714.555-19.044.336-2.207.389-4.457.71-6.667.878-6.032 1.837-12.053 2.749-18.079.193-1.274.266-2.569.502-3.835 1.004-5.401 1.992-10.806 3.094-16.188.949-4.627 1.947-9.248 3.107-13.825.842-3.326 1.92-6.596 3.002-9.854 1.596-4.807 2.809-9.763 5.283-14.241 1.973-3.569 4.377-6.815 7.748-9.182 2.79-1.96 6.078-2.819 9.342-3.567 8.405-1.928 14.9-2.25 24.24-1.349zm44.859 52.212c-.199-.366-.396-.731-.596-1.097l-.365.299c.32.266.641.532.959.799.061.492.01 1.033.201 1.467.508 1.151 1.244 1.034 2.143.301-.5-.382-.877-.673-1.258-.96-.359-.273-.723-.541-1.084-.809zm-29.131 71.258c-1.176-2.555-2.19-3.143-3.506-2.283-.227.146-.365.547-.391.842-.014.182.23.508.42.562 1.03.299 2.079.535 3.477.879zm-8.84-8.117c-1.752 1.373-1.756 1.748.119 2.713.29-.955.8-1.801-.12-2.713zm-9.742-2.506c1.934-.682 1.934-.682 1.289-2.557a655.7 655.7 0 01-1.29 2.557zm36.533-66.443c.119-.319.295-.554.244-.719-.051-.168-.326-.269-.502-.398-.107.189-.32.398-.291.562.034.177.293.312.549.555zM43.944 25.55l-.252.297c.088.135.152.353.27.387.265.075.556.061.835.082-.284-.255-.57-.51-.853-.766zm31.702 13.512c.08-.116.242-.254.219-.344-.031-.126-.203-.216-.314-.321-.078.116-.24.253-.22.345.03.124.2.215.315.32z" fill="#000"/></svg>