<svg width="51" height="204" fill="none" xmlns="http://www.w3.org/2000/svg"><path d="M40.438.995c.041.252.18.568.121.843-1.25 5.841-.793 11.719-.469 17.604a92.446 92.446 0 001.113 10.029c.221 1.333-.014 2.734.098 4.094.352 4.297.66 8.603 1.186 12.88.551 4.482 1.346 8.935 2.008 13.403.293 1.977.57 3.958.773 5.945.641 6.277 1.412 12.549 1.797 18.842.236 3.86-.168 7.758-.23 11.64-.025 1.561.082 3.125.156 4.687.1 2.1.217 4.198.34 6.296.205 3.465.438 6.928.627 10.394.176 3.252.305 6.508.467 9.761.188 3.78.223 7.577.623 11.336.672 6.296.703 12.606.764 18.919.06 5.995.05 11.989.7 17.961a21.03 21.03 0 01.104 3.154c-.15 3.785-.389 7.566-.516 11.353-.064 1.884.04 3.772.072 5.659.018 1.053.07 2.105.06 3.157-.009.595-.4.953-.956 1.085-.582.137-1.295-.335-1.418-.965a7.992 7.992 0 01-.14-1.56c.007-4.837-.14-9.665.27-14.509.291-3.438-.05-6.934-.158-10.402-.062-1.998-.28-3.992-.32-5.99-.145-7.262-.176-14.525-.387-21.784-.098-3.36-.6-6.708-.758-10.068-.182-3.885-.188-7.778-.273-11.668-.008-.419 0-.842-.047-1.258-.467-4.076-.912-8.147-.992-12.26-.129-6.626-.588-13.244-.383-19.877.191-6.226-.287-12.408-1.199-18.565-.262-1.769-.324-3.565-.564-5.338-.859-6.359-1.842-12.705-2.607-19.076-.514-4.279-.703-8.596-1.107-12.89-.355-3.769-.826-7.525-1.21-11.292-.526-5.124-.82-10.261-.433-15.408.143-1.887.334-3.792 1.33-5.477.317-.538.688-1.114 1.558-.655zM26.336 199.151c-.371-.039-.836.03-1.15-.153-.322-.19-.645-.6-.715-.963-.158-.814-.107-1.667-.234-2.49-.988-6.479-1.014-13.01-1.102-19.537-.1-7.368-.158-14.736-.307-22.104-.098-4.838-.498-9.674-.457-14.509.078-8.953-.49-17.886-.625-26.831-.088-5.789-.273-11.586.305-17.359.34-3.389-.32-6.719-.377-10.081-.04-2.314-.275-4.628-.252-6.939.045-4.319-.406-8.605-.691-12.903-.201-3.039-.527-6.071-.785-9.107-.17-1.992-.28-3.99-.484-5.979-.547-5.261-.281-10.524-.047-15.783.168-3.795.092-7.555-.354-11.342-.54-4.593-.73-9.227-1.086-13.842-.113-1.469-.35-2.931-.398-4.4-.02-.578.26-1.196.52-1.739.099-.202.552-.355.815-.321.252.032.504.308.689.531.123.147.162.39.18.594.27 3.355.523 6.711.793 10.066.27 3.354.629 6.701.807 10.06.184 3.465.283 6.939.264 10.408-.023 4.31-.273 8.618-.285 12.927-.004 1.666.402 3.33.568 5.001.166 1.674.248 3.355.398 5.031.188 2.09.445 4.174.605 6.265.273 3.564.566 7.129.723 10.7.197 4.509.162 9.03.414 13.536.32 5.685.162 11.344-.268 17.016-.166 2.18.09 4.391.15 6.588.215 7.57.44 15.14.635 22.71.14 5.47.219 10.941.355 16.411.17 6.83.408 13.659.54 20.49.06 3.151-.173 6.309-.083 9.458.129 4.413.418 8.822.68 13.23.049.834.332 1.651.44 2.485.124.917.36 1.855-.181 2.875zM3.344 18.314c.21 3.453.416 6.905.623 10.358.145 2.411.31 4.822.43 7.235.295 5.882.367 11.784.912 17.642.488 5.23.783 10.472 1.22 15.703.417 5.021 1.138 10.038.835 15.105a7.367 7.367 0 00.13 1.886c.86 4.262.671 8.599.993 12.898.46 6.085.102 12.188.525 18.271.32 4.623.8 9.223 1.648 13.783.29 1.547.453 3.124.564 4.694.455 6.508.9 13.017 1.29 19.529.411 6.941.308 13.904-.206 20.818-.637 8.558-.084 17.022.848 25.501.033.311.072.648-.018.936-.08.266-.287.602-.518.683-.22.077-.674-.049-.793-.235-.332-.51-.717-1.082-.77-1.659-.685-7.115-1.509-14.24-1.099-21.396.482-8.417.56-16.828.32-25.248a108.827 108.827 0 00-.266-5.044c-.277-3.668-.76-7.329-.842-11-.094-4.131-.773-8.173-1.365-12.23a118.489 118.489 0 01-1.209-15.093c-.119-6.839-.203-13.676-.766-20.5a1741.652 1741.652 0 01-1.95-26.12c-.659-9.759-1.235-19.522-1.8-29.286-.189-3.256-.05-6.541-.395-9.776-.436-4.108-.244-8.195-.18-12.297.033-2.21-.08-4.424-.785-6.559C.59 6.517.548 6.09.48 5.676.388 5.133.423 4.638.972 4.317c.49-.287.98.01 1.365.89.684 1.556 1.105 3.177 1.131 4.885.04 2.737.066 5.474.1 8.21a7.972 7.972 0 01-.224.012z" fill="#000"/></svg>