<svg width="114" height="64" fill="none" xmlns="http://www.w3.org/2000/svg"><path d="M73.32 8.868c.139-1.239-.656-1.612-1.414-2.099-1.039-.668-1.316-1.492-.875-2.424.191-.4.549-.821.938-1.01 1.777-.862 4.24-.132 5.307 1.524.422.658.488 1.399-.01 2.018-.914 1.137-2.008 2.023-3.946 1.991zM33.525 51.623c-.635-.27-1.299-.492-1.9-.825-1.029-.569-1.766-1.365-1.646-2.666.104-1.134 1.05-2.097 2.334-2.37.234-.05.467-.109.705-.137 1.14-.135 1.867.282 2.23 1.344.29.842.381 1.713.12 2.59-.249.827-.542 1.155-1.843 2.064zM3.471 38.293c-.188-.088-.678-.16-.881-.439-.84-1.156-1.674-2.352-1.881-3.807-.127-.879.412-1.658 1.141-1.888.873-.274 1.76-.419 2.398.446.615.831 1.197 1.69 1.732 2.574.443.73.518 1.571 0 2.267-.548.74-1.349 1.11-2.509.847zm64.078-15.81l-.545 1.248c-.453 1.044-2.869 1.403-3.494.303-.346-.61-.715-1.225-.939-1.884-.264-.782.195-1.669.988-1.879a9.246 9.246 0 012.348-.304c1.364.002 1.958.833 1.642 2.516zm45.465 38.883c-.236.911-.707 1.588-1.701 1.788-.846.169-1.654-.147-2.018-.896a17.066 17.066 0 01-.805-1.968c-.25-.726-.139-1.411.398-2 .555-.609 1.26-.658 1.982-.479 1.398.344 2.47 2.155 2.144 3.555zM77.145 37.633c-.121-.473-.139-1.074-.414-1.518-.715-1.154-.174-1.975.58-2.764.633-.663 1.41-.7 2.209-.355 1.027.443 1.703 1.158 1.742 2.354.043 1.348-.668 2.318-1.979 2.609-.715.159-1.424.167-2.138-.326zm2.015-2.934c-.15-.333-.191-.587-.342-.721-.287-.259-.762-.02-.861.456-.039.188.096.414.15.623l1.053-.358zM20.14 2.245c-.198 1.05-.308 1.996-.58 2.894-.151.5-.522.963-.886 1.36-.398.438-.955.55-1.53.342-.601-.218-.827-.734-.854-1.308-.021-.47.088-.943.133-1.415.045-.472.16-.955.1-1.414-.07-.542-.363-1.116.289-1.451.65-.334 1.365-.451 2.033-.03.397.25.743.58 1.296 1.022zm3.094 23.373c.885.533 1.201 1.326 1.346 2.21.15.924-.273 1.837-1 2.224-.787.42-1.576.319-2.225-.209a4.413 4.413 0 01-1.154-1.464c-.574-1.195-.076-2.188 1.236-2.529.598-.157 1.235-.164 1.797-.232zm30.651 12.28c-.062.262-.096.418-.139.571-.402 1.471-1.32 1.716-2.381.624-.332-.342-.664-.697-.92-1.096-.822-1.281-.264-2.749 1.191-3.207 1.209-.38 2.268.295 2.346 1.547.036.553-.066 1.112-.097 1.561zm42.451-14.394l.975 3.646c-.41.407-.809.905-1.305 1.269-.805.588-1.984.164-2.316-.791-.318-.914-.514-1.81.148-2.708.63-.856 1.226-1.665 2.498-1.416zm10.824 19.472c-.422-.786-.861-1.607-1.287-2.404 1.053-1.912 2.105-2.406 3.596-1.722.588.27.83.727.684 1.355-.199.863-.475 1.711-1.17 2.309-.491.421-1.069.691-1.823.462zM45.748 13.598c-.25 1.232-2.059 2.3-3.209 1.925a1 1 0 01-.408-.237c-.553-.591-.598-2.301-.092-2.922.686-.842 2.203-1.091 3.037-.434.528.416.742 1.024.672 1.668zm16.854 46.878c-2.307.027-2.307.027-2.479-1.456.254-.38.533-.097.812-.042.512.098.895-.064 1.174-.543.543-.927.561-.917 1.82-1.346.148.32.396.645.441.995.111.863.176 1.738.176 2.608 0 .675-.279 1.223-1.223 1.352-.235-.511-.483-1.049-.72-1.568zm21.418-6.463c.143.743-.301 1.254-.809 1.589-.713.47-1.516.82-2.312 1.143-.537.218-1.078-.334-1.004-.945.137-1.137.857-1.859 1.809-2.316.853-.411 1.679-.252 2.316.529z" fill="#000"/></svg>