<svg width="184" height="81" fill="none" xmlns="http://www.w3.org/2000/svg"><path d="M106.27 57.509c.947-.345 1.889-.975 2.842-.995 22.098-.461 44.195-.859 66.293-1.254 1.031-.019 2.08.015 3.096.174 3.021.472 4.678 2.072 4.795 4.51.145 3.049-1.391 5.824-3.943 6.562-2.146.619-4.381 1.014-6.605 1.277-7.027.836-14.07 1.56-21.105 2.336-.842.094-1.676.25-2.67.4-.553 1.334-.924 2.666-1.617 3.801-1.006 1.65-2.354 2.61-4.545 2.859-13.549 1.53-27.102 2.699-40.76 2.564-7.199-.07-14.404.37-21.609.412-2.193.013-4.391-.787-6.588-.785-15.209.01-30.23-1.975-45.24-4.096a795.057 795.057 0 01-21.447-3.312c-4.314-.729-6.182-2.666-6.49-6.183-.262-2.977 1.318-5.016 4.289-5.373 1.018-.123 2.066.021 3.102.057 7.031.243 14.064.49 21.178.32-2.279-.377-4.561-.734-6.834-1.139-1.514-.271-3.094-.406-4.506-.957-3.094-1.207-3.744-2.729-3-6.159.635-2.925 1.914-3.921 5.102-3.972l14.307-.227c.24-.742.533-1.24.422-1.359-3.021-3.221-4.031-7.896-7.752-10.62-1.742-1.276-2.088-3.191-1.504-5.122.578-1.906 1.914-3.302 3.971-3.687 1.666-.312 3.363-.458 5.104-.685.482-2.675-.607-4.229-2.75-5.079-7.256-2.881-7.996-4.841-6.875-11.464L21.464 7.18c.041-.9.121-1.922.129-2.946.018-1.965 1.186-2.79 2.947-2.891 5.162-.295 10.348-.951 15.488-.704 11.725.562 23.416 1.772 35.139 2.358 14.322.716 28.662 1.062 42.994 1.567 8.799.311 17.602.542 26.395.996 1.812.093 3.854.629 5.311 1.647 2.242 1.566 4.543 2.136 7.186 2.457 2.299.279 4.494 1.411 7.08 2.282-.645 3.277-1.195 6.079-1.824 9.288 1.6.214 3.086.463 4.582.595 1.027.091 2.078-.048 3.107.036 3.604.295 5.809 1.703 6.051 3.793.367 3.17-1.988 6.082-5.547 6.857-4.543.989-4.543.989-5.504 6.343 1.562.071 3.084.096 4.6.218 3.324.267 4.838 1.446 5.168 3.94.479 3.614-1.055 6.534-4.209 7.286-3.518.84-7.096 1.635-10.691 1.916-16.012 1.247-32.039 2.299-48.059 3.436-1.998.143-4.264-.431-5.537 1.869-1.479-1.775-3.18-1.301-4.818-.621 1.55.199 3.183.403 4.818.607zm46.273-18.942l-.031 1.16c1.592-.1 3.184-.198 4.775-.296l.012-.383-4.756-.481zm10.281.35c-.127-.084-.252-.232-.381-.236-.145-.004-.291.125-.438.195l.562.433.257-.391zM113.043 20.75l-.086-.284-.357.161.443.123z" fill="#000"/></svg>