<svg width="139" height="92" fill="none" xmlns="http://www.w3.org/2000/svg"><path d="M106.104 84.229c.26 1.371.59 2.637.719 3.924.125 1.246-.557 2.316-1.662 2.551-2.412.514-4.689.172-6.78-1.344.194-.735.308-1.35.517-1.928.29-.797.863-1.266 1.725-1.478 1.756-.433 1.748-.468 3.076-2.157l-1.51-.909c.164-.43.359-.842.479-1.274.33-1.184 1.049-2.016 2.305-1.961 2.311.101 4.328-.402 6.236-1.822 1.322-.982 3.895.785 3.965 2.527.027.66-.611 1.335.094 2.028.094.092-.363.988-.744 1.271-1.268.94-2.768 1.17-4.309 1.039-1.416-.122-2.822-.317-4.111-.467zm-58.41-46.617c.22-1.226.74-1.85 1.934-1.848a12.44 12.44 0 002.6-.295c1.072-.23 2.117-.578 3.172-.878.074-.021.139-.093.213-.106 2.619-.464 4.617-1.845 6.402-3.816 1.287-1.422 3.668-.297 4.193 1.799.686 2.734.162 4.158-2.39 5.5-1.313.693-2.8 1.232-4.264 1.43-2.355.318-4.756.4-7.137.382-1.778-.014-3.444-.586-4.723-2.168zM6.36 60.184c.609-2.84.64-2.861 3.104-2.976 1.574-.073 3.186.015 4.71-.302 1.532-.318 3.05-.913 4.446-1.631 2.38-1.227 3.3-1.104 4.908.936.55.697.47 1.275.35 2.141-.293 2.081-1.621 2.902-3.31 3.516-4.19 1.525-8.321 1.008-12.395-.459-.641-.231-1.17-.78-1.813-1.225zm91.056 22.734c-.203.422-.428.891-.652 1.361.273.336.549.672.879 1.072-3.586 1.862-7.305 2.5-11.131 2.479-2.102-.012-4.281.428-6.326-.604l.695-.652-1.07-1.312c2.447-1.424 4.912-2.416 7.678-2.74 1.303-.152 2.551-.809 3.812-1.271 2.804-1.03 3.935-.745 6.115 1.667zm-37.451-4.785c.092-.356.359-.793.246-1.074-.418-1.032.246-1.279.962-1.482.377-.107.787-.125 1.184-.123 3.36.016 6.14-1.221 8.424-3.71 1.289-1.407 3.555-.694 4.066 1.333.28 1.112.232 2.352.102 3.508-.062.542-.623 1.071-1.055 1.514-.324.332-.793.529-1.211.764-3.568 2.004-9.665 1.658-12.718-.73zM16 31.068c.137-1.624.592-2.926 2.125-3.47-1.82-4.345-1.82-4.345-1.459-6.288 1.711.118 1.535 1.603 1.801 2.632.268 1.042.246 2.158.355 3.301 1.941.043 2.893-1.34 4.023-2.401.402-.38.676-.902 1.092-1.26 1.014-.871 2.047-.793 2.971.148 1.939 1.974 1.65 5.414-.74 6.813-1.207.706-2.646 1.11-4.035 1.382-1.978.387-4.252-.04-6.133-.857zM.956 68.168c1.5.164 2.68.26 3.848.43 1.631.24 3.141.048 4.621-.766 2.115-1.162 4.047-.328 4.604 1.928.23.925-.717 1.855-.094 2.825-.594.506-1.127 1.115-1.79 1.5-3.376 1.962-8.095.305-10.105-1.394-.445-.377-.779-1.025-.904-1.605-.18-.828-.122-1.708-.18-2.918zm105.542-35.744l.486 2.456c.281 1.433.025 2.088-1.297 2.709-2.088.982-4.268 1.083-6.582.51-.314-1.811-.352-3.349 1.693-4.178.418-.17.709-.815.922-1.301.949-2.152 1.332-2.329 3.623-1.536.146.051.309.056.6.106.053-.371.23-.774.135-1.096-.559-1.864.754-3.025 1.662-4.252.805-1.089 2.271-.796 2.963.411.039.068.051.151.082.224 1.236 2.877 1.758 4.472-2.697 5.64-.379.099-.77.151-1.59.307zm31.938-7.876c-2.582 1.364-4.918 1.072-7.318.129-.959-.376-.619-1.38-1.221-1.973-1.551-.161-2.943 1.228-4.549.673-.793-1.848-.572-3.438.881-4.796a1.94 1.94 0 00.293-.378c1.49-2.355 1.682-2.4 4.191-1.062l1.445 3.579c.256-.325.426-.589.643-.81 1.49-1.521 3.373-1.294 4.314.56.396.778.68 1.619.967 2.447.152.44.203.917.354 1.631zM34.83 4.503c2.007-.506 3.798-1.037 5.626-1.389 1.141-.22 2.025-.566 2.793-1.547.99-1.262 2.633-1.029 3.236.507.54 1.37.723 2.911.836 4.393.033.428-.627 1.151-1.123 1.338-2.875 1.087-5.867 1.469-8.922.995-1.027-.159-1.684-.831-1.883-1.907-.129-.696-.322-1.38-.564-2.39zm5.985 66.538c-4.234 3.873-8.023 4.438-11.428 1.668.037-.508.057-1.054.12-1.594.171-1.473.34-1.689 1.86-1.887 1.893-.246 3.367-1.242 4.777-2.417 1.494-1.245 2-1.333 3.141-.644 1.453.879 1.705 1.529 1.434 3.316-.076.507.06 1.045.096 1.558zm87.494-28.109c-5.748 4.66-8.502 5.438-14.115 4.845l1.469-1.16-1.232-.716c.076-.094.156-.19.234-.29.787-1.028 1.871-1.616 2.996-2.226 1.529-.827 2.99-1.811 4.365-2.876 1.281-.993 2.623-1.11 4.059-.665.855.266 1.639.744 1.211 1.889-.339.908.581.738 1.013 1.199zm-42.034 2.154c-.338.539-.738 1.035-.982 1.598-.963 2.205-2.836 3.163-5.01 3.622-1.949.412-3.934.532-5.893.025l-.285-2.216c.455-.902 1.467-1.501 2.596-1.869 1.855-.607 3.52-1.409 4.607-3.16.525-.846 1.398-1.279 2.443-1.254 1.324.03 1.979.604 2.223 1.971.053.297.084.6.146.895.03.142.109.275.155.388zm35.549 32.108c.115-.952.195-1.571.266-2.192.105-.959.592-1.572 1.518-1.919 1.586-.595 3.02-1.321 3.639-3.149.287-.845 1.234-1.285 2.189-1.1 1.145.223 2.109.875 2.506 1.988.342.961.559 2.017.555 3.03-.002.632-.43 1.321-.824 1.874-.252.354-.764.578-1.205.734-2.732.972-5.513 1.37-8.644.734zM51.676 16.533c-.06-.671-.162-1.274-.15-1.875.012-.626.133-1.25.223-2.005.707-.385 1.418-.999 2.22-1.158 1.255-.248 2.16-.772 2.948-1.792.672-.875 1.822-.843 2.79-.233 1.672 1.055 2.196 2.767 2.043 4.497-.145 1.634-1.501 2.6-3.078 2.972-.992.234-2.05.379-3.057.301-1.33-.102-2.64-.462-3.94-.707zm67.586-2.666c-2.455.029-3.586-1.316-3.037-3.206.127-.435.682-.94 1.129-1.053 1.535-.388 2.146-1.508 2.578-2.836.098-.302.131-.63.26-.916.426-.946 1.133-1.53 2.213-1.53 1.076 0 2.174.769 2.559 1.76.057.148.064.317.129.459.576 1.238 1.09 2.46.361 3.84-.84 1.587-2.252 2.453-3.838 3.032-.88.322-1.864.362-2.354.45zm-14.27 49.863c.061-.656.094-.969.117-1.282.148-2.041.168-2.222 2.051-2.608 1.506-.309 2.193-1.145 2.434-2.539.014-.078.049-.153.061-.231.154-1.003.508-1.88 1.615-2.13.908-.205 2.225.502 2.566 1.76.49 1.801 1.051 3.662.434 5.592-.299.933-.871 1.473-1.816 1.699-2.464.591-4.874.404-7.462-.261zm-80.146-8.847c.05-.823 0-1.475.148-2.077.123-.5.377-1.055.75-1.39 1.285-1.158 2.678-2.196 3.97-3.35.653-.585 1.345-.946 2.142-.577.95.44 1.902 1.147 1.965 2.228.123 2.182-.357 4.043-2.652 5.229-2.182 1.126-4.116 1.486-6.323-.063zm33.168-5.567c1.664-.743 2.762-1.653 3.601-2.997 1.19-1.901 3.65-1.631 4.404.498.395 1.108.53 2.478.266 3.608-.389 1.655-1.768 2.703-3.459 2.809-1.219.075-2.695-.034-3.628-.68-.713-.492-.758-1.954-1.184-3.238zm65.693 1.424c.238-.465.641-.973.543-1.104-1.109-1.482.318-1.838 1.086-2.222.979-.489 2.117-.663 3.281-1.001.082-.107.26-.275.363-.48.465-.914 1.088-1.693 2.213-1.439 1.195.271 1.777 1.277 2.133 2.365.168.512.131 1.087.26 1.615.443 1.824.195 2.207-1.742 2.499-2.629.396-5.246.226-8.137-.233zM68.699 91.111c-.424-.051-.896-.119-1.373-.164-.91-.085-1.48-.532-1.615-1.465-.082-.553-.158-1.107-.26-1.656-.18-.974.268-1.613 1.172-1.753 1.047-.162 1.689-.755 2.328-1.512.639-.758 1.227-1.835 2.535-1.19.939.462 1.52 2.09 1.244 3.338-.102.459-.24.914-.295 1.378-.25 2.124-.66 2.577-2.73 2.917-.312.051-.633.068-1.006.107zm27.01-22.714c-.943-.142-1.91-.197-2.82-.452-.74-.206-1.492-.499-1.455-1.594.047-1.311.35-2.17 1.408-2.436.758-.189 1.229-.492 1.686-1.123 1.227-1.697 3.148-1.493 4.092.395.205.412.24.913.334 1.377.632 3.088-.124 3.965-3.245 3.833zM32.061 13.144l-3.365.603c-1.141-.654-1.568-1.847-1.652-3.246-.098-1.59.42-2.981 1.439-4.154.756-.87 1.975-.885 2.717.01.48.58.922 1.373.971 2.097.103 1.559-.057 3.137-.11 4.69zm17.877 32.614c-.203.91-.316 1.855-.637 2.723-.285.78-.959.92-1.748.625-1.432-.537-2.004-1.908-2.732-3.023-.598-.912 1.074-3.79 2.15-4.127.803-.25 1.949.424 2.451 1.45.102.212.236.433.252.657.037.549.012 1.102.012 1.654l.252.04zm17.136 23.023c-.906-.828-1.695-1.682-2.619-2.347-.648-.466-1.039-.923-.992-1.731.057-.957.092-1.906.822-2.661.725-.748 1.781-.947 2.258-.118.85 1.47 2.033 2.678 2.92 4.115.463.75.373 1.147-.152 1.529-.627.453-1.366.75-2.237 1.213zM6.952 20.297c-.88 1.26-.492 3.019-1.936 4.114l-2.797-.47c-.074-.237-.172-.526-.254-.82-.207-.736-1.314-1.164-.879-2.077.473-.991 1.04-1.97 1.732-2.816.713-.872 1.662-.862 2.5-.04.612.603 1.065 1.363 1.634 2.109zM92.09 9.829l-2.885.514c-1.633-.91-2.613-2.181-2.387-4.192.15-1.347.822-2.186 1.955-2.253 1.396-.083 2.783.93 2.938 2.187.143 1.169.238 2.344.379 3.744z" fill="#000"/><path d="M102.816 58.51c-.244-2.056-.463-3.691.83-5.113.658-.725 1.326-1.03 2.312-.731.957.29 1.514.837 1.617 1.825.033.314-.023.641.027.949.383 2.289 0 2.842-2.246 3.059-.77.073-1.557.011-2.54.011zm12.008-45.404c-1.559-1.06-2.787-1.683-3.742-2.593-1.311-1.246-2.02-2.874-1.688-4.741.086-.48.496-1.178.873-1.264.521-.12 1.336.068 1.701.44 1.404 1.429 2.174 3.225 2.488 5.202.13.817.206 1.64.368 2.956zM31.682 33.584c-.36-.86-.65-1.583-.965-2.297-.73-1.658-.82-2.972 1.219-3.825 1.834.844 2.809 2.458 2.555 4.23-.184 1.277-.951 1.81-2.81 1.892zm59.283-17.255c.53.357 1.23.566 1.383.979.664 1.787.902 3.677.525 5.559-.143.705-.88.822-1.512.681-.445-.865-.81-1.723-1.305-2.498-1.105-1.737-.943-2.963.91-4.721zm-19.449-.952c-.332-1.307-1.008-2.451-.21-3.667 1.26-.022 1.995.836 2.825 1.72-.205 1.375-1.14 1.865-2.615 1.947zM27.831 20.33c.418-1.331-1.689-2.854.285-4.081 1.461 1.925 1.45 2.436-.285 4.081z" fill="#000"/></svg>