<svg width="184" height="91" fill="none" xmlns="http://www.w3.org/2000/svg"><path d="M183.861 90.676c-.645.018-1.268.092-1.883.042-3.584-.288-7.168-.603-10.75-.919-.477-.041-.969-.076-1.416-.225-2.533-.843-5.166-.972-7.797-1.138a686.68 686.68 0 01-8.373-.579c-7.977-.606-15.969-.771-23.961-.932-3.754-.074-7.508-.114-11.26-.166-8.072-.111-16.145-.196-24.217-.34-3.914-.068-7.826-.215-11.738-.383-3.592-.153-7.184-.314-10.766-.598s-7.152-.725-10.727-1.094c-2.143-.221-4.287-.414-6.426-.654-4.127-.463-8.262-.866-12.37-1.455-3.554-.509-7.07-1.271-10.612-1.864-3.309-.554-6.627-1.033-9.94-1.542-2.526-.389-5.056-.752-7.575-1.166-1.109-.182-2.197-.395-3.316-.062-.703.209-1.215-.133-1.676-.647-.816-.909-.934-2.006-.883-3.138.025-.539.402-.887.94-.911.554-.024 1.116.023 1.67.091 3.41.418 6.813.891 10.23 1.268 6.993.77 13.91 2.061 20.84 3.231 4.343.733 8.704 1.226 13.073 1.685 5.162.543 10.348.856 15.508 1.42 7.717.844 15.453 1.207 23.207 1.311 5.35.071 10.703.024 16.053.127 8.23.156 16.461.405 24.693.595 2.717.062 5.439-.013 8.154.105 5.988.261 11.98.511 17.957.939 6.055.434 12.094 1.056 18.135 1.644 1.186.115 2.361.402 3.514.711.418.111.961.439 1.094.799.431 1.171.958 2.364.618 3.845zM15.541 53.803c.715-.174 1.236-.416 1.752-.402 1.676.039 3.352.16 5.025.273 3.584.244 7.164.65 10.75.73 8.861.197 17.723.734 26.594.234 4.143-.234 8.291-.402 12.439-.582 2.393-.104 4.787-.172 7.18-.258.639-.022 1.281-.023 1.916-.086 5.332-.52 10.688-.547 16.031-.795 3.83-.18 7.658-.432 11.49-.568 4.549-.164 9.104-.37 13.654-.328 10.873.102 21.738-.133 32.605-.457 4.311-.127 8.629-.027 12.943.042 1.432.022 2.861.267 4.289.43 1.082.126 1.984.636 2.629 1.5.693.935 1.662 1.734 1.756 3.208-.48.096-.92.283-1.344.252-2.305-.17-4.604-.445-6.912-.577-1.672-.095-3.355-.065-5.031-.015-5.342.158-10.682.37-16.021.523-2.156.06-4.314.014-6.471.028-2.156.014-4.311.069-6.467.058-4.625-.023-9.252-.18-13.875-.094-5.506.104-11.01.4-16.516.615-1.428.057-2.857.104-4.287.178-2.865.148-5.73.3-8.596.475-2.869.174-5.736.393-8.607.562-3.027.178-6.057.299-9.084.48-3.025.184-6.045.445-9.072.615-6.623.37-13.254.279-19.883.184-2.311-.034-4.609-.328-6.916-.461-5.17-.297-10.334-.807-15.475-1.432-1.498-.184-2.977-.364-4.482-.386-.959-.014-1.547-.407-1.725-1.275-.158-.771-.176-1.571-.289-2.671zM1.256 29.021c1.092-.042 2.121-.109 3.152-.115 8.873-.052 17.746-.015 26.617-.164 6.711-.113 13.418-.574 20.129-.673 6.232-.092 12.467.064 18.699.158 4.234.063 8.471.167 12.703.322 7.738.284 15.473.631 23.211.929 5.51.213 11.021.366 16.529.591 4.072.167 8.141.412 12.213.611 1.756.086 3.514.152 5.271.213 9.268.32 18.537.618 27.803.964 3.115.117 6.232.284 9.338.564 1.66.15 3.311.525 4.932.933.566.143 1.283.585 1.484 1.074.377.92.865 1.9.543 2.98-.156.52-.646.79-1.35.701-1.428-.178-2.85-.392-4.277-.555-6.506-.744-13.045-1.046-19.582-1.323-6.469-.274-12.945-.372-19.416-.636-4.551-.186-9.096-.521-13.643-.789-2.697-.159-5.396-.301-8.092-.474a238.366 238.366 0 01-6.434-.478c-1.502-.138-2.979-.321-4.512-.179-1.572.146-3.184.011-4.768-.126-1.342-.117-2.662-.475-4.004-.609-1.021-.103-2.08-.142-3.092 0-2.799.39-5.562-.149-8.34-.161-2.068-.008-4.123-.21-6.191-.238-1.955-.026-3.951.232-5.902-.272a4.456 4.456 0 00-1.895-.066c-.713.137-1.377.421-2.012-.166-.047-.044-.18-.07-.223-.038-1.232.94-2.461-.053-3.691-.005-1.35.052-2.701-.106-4.035.315-.502.158-1.129.147-1.637 0-1.258-.367-2.492-.126-3.74-.061-1.271.066-2.578.303-3.807.093-1.289-.22-2.527-.175-3.785-.037-2.217.243-4.434-.134-6.645.02-3.309.231-6.639.123-9.926.69-.701.121-1.426.168-2.139.151-2.293-.054-4.584.25-6.885-.275-1.197-.273-2.523-.448-3.766.179-.324.163-.779.113-1.17.091-4.693-.27-9.383-.095-14.07.113-.32.014-.641.026-.957.07-2.283.315-3.264-.936-3.025-3.369.026-.223.174-.436.387-.953zm180.951-12.179c-1.088-.401-2.021-.769-2.973-1.09-.902-.305-1.83-.328-2.793-.361-3.109-.109-6.223-.329-9.309-.716-1.775-.223-3.496.046-5.242.069-.957.013-1.867.032-2.818-.255-.725-.219-1.631-.234-2.35-.004-1.434.46-2.799.08-4.195-.006-2.047-.127-4.061-.546-6.156-.163-1.461.267-3.004.068-4.512.088-1.99.026-3.982.101-5.973.083-1.188-.011-2.373-.157-3.559-.246-.236-.018-.514-.149-.699-.067-1.777.782-3.621.062-5.432.244-1.402.141-2.852-.214-4.281-.293-1.029-.057-2.072-.107-3.094-.011-2.549.239-5.078-.325-7.627-.123-1.189.095-2.398-.065-3.588.035-2.646.225-5.258-.13-7.881-.32-.549-.04-1.127-.08-1.654.039-.717.162-1.402.113-2.123.094-2.852-.076-5.705-.032-8.525-.583-.385-.075-.797-.039-1.195-.028-4.869.127-9.699-.406-14.527-.903-5.078-.522-10.145-1.167-15.217-1.734-1.58-.176-3.174-.216-4.746-.426-2.686-.359-5.346-.954-8.039-1.172-3.18-.257-6.287-.993-9.469-1.213-1.824-.127-3.637-.447-5.449-.707-3.865-.553-7.73-1.105-11.59-1.698-1.336-.205-2.656-.523-3.982-.798-1.637-.339-3.271-.684-4.955-.4-.506-.849-.123-1.218.4-1.848.641-.774 1.293-.341 1.949-.451L11.49.624c1.396.091 2.836.109 4.254.291A1771.87 1771.87 0 0132.14 3.106c6.096.84 12.182 1.736 18.281 2.557 3.248.438 6.51.779 9.768 1.143 5.559.621 11.113 1.297 16.684 1.813 3.816.354 7.652.541 11.486.688 6.307.24 12.617.47 18.928.553 7.668.101 15.34.09 23.01.046 11.109-.064 22.219-.249 33.33-.282 3.914-.011 7.83.231 11.742.441 1.43.077 2.855.352 4.266.621a7.527 7.527 0 012.018.714c.852.442 1.141 1.217.922 2.223-.117.542-.4 1.056-.467 1.6-.063.518.058 1.055.099 1.619zM10.258 3.243c.051-.113.111-.223.146-.34.006-.022-.125-.119-.145-.106-.102.067-.186.157-.277.24l.276.206zm32.359 4.344c-.113.057-.295.091-.322.176-.033.101.066.246.107.371l.465-.217-.25-.33zm-28.873-4.45l-.182.059c.08.05.158.108.244.141.02.008.072-.073.109-.112-.056-.03-.114-.058-.171-.088z" fill="#000"/></svg>