<svg width="298" height="197" fill="none" xmlns="http://www.w3.org/2000/svg"><path d="M271.518 116.857c-5.402 8.654-11.934 16.43-18.324 24.307-4.834 5.961-9.646 11.939-14.611 17.789-2.449 2.887-5.221 5.5-7.85 8.232-.852.887-1.812 1.686-2.561 2.648-2.445 3.146-5.6 5.619-8.027 8.818-2.564 3.381-6.305 5.494-9.941 7.637-8.246 4.857-17.18 7.521-26.594 9.078-9.48 1.566-18.977 1.621-28.508 1.383-6.891-.174-13.379-2.283-19.555-5.029-9.025-4.016-18.346-7.166-27.752-10.025-5.662-1.721-11.584-2.68-17.447-3.623-7.893-1.271-15.865-2.051-23.758-3.324-5.1-.824-10.195-1.092-15.32-.904-9.871.361-19.65-.988-29.471-1.525-4.566-.25-9.176-.99-13.477-2.891-4.848-2.139-7.672-5.568-7.82-11.072-.168-6.301.643-12.484 1.859-18.631 1.695-8.578 4.586-16.805 7.279-25.1 1.795-5.525 4.404-10.557 7.498-15.434 3.125-4.93 5.695-10.227 9.018-15.01 2.787-4.012 6.062-7.766 9.574-11.168 3.502-3.393 8.105-5.16 12.758-6.543 1.047-.311 2.242-.223 3.363-.172 4.412.195 8.721.916 13.047 1.922 6.574 1.529 13.008 3.82 19.811 4.246 2.855.18 5.729.15 8.592.092 4.816-.098 9.629-.322 14.445-.441 5.254-.131 10.156-1.367 14.434-4.535 7.576-5.609 15.148-11.227 22.676-16.904 5.48-4.135 10.973-8.262 16.301-12.59 6.68-5.426 13.104-11.17 19.811-16.559 5.74-4.613 11.451-9.264 17.855-13.021 3.658-2.148 7.648-3.418 11.432-5.209 1.887-.895 4.16-1.131 6.289-1.326 5.811-.535 11.633-1.041 17.463-1.271 5.162-.203 10.184.807 15.09 2.486 7.783 2.666 15.24 5.938 22.307 10.229 4.404 2.672 8.729 5.279 12.176 9.184 1.758 1.99 3.875 3.67 5.607 5.682 7.594 8.807 9.58 18.92 7.115 30.182-1.258 5.746-3.113 11.258-5.316 16.674-3.361 8.26-6.543 16.607-10.26 24.707-2.685 5.845-6.113 11.351-9.208 17.011zM95.393 132.113l.527-.139-.455-1.777-.543.141c.156.592.314 1.183.471 1.775zm130.287 26.291c.15-.061.305-.111.441-.193.021-.012-.018-.225-.059-.234-.146-.037-.307-.029-.461-.039.026.154.051.31.079.466z" fill="#000"/></svg>