<svg width="134" height="201" fill="none" xmlns="http://www.w3.org/2000/svg"><path d="M19.031.187c7.83.621 15.662 1.239 23.492 1.863 7.21.574 14.416 1.175 21.627 1.728 10.074.772 20.131 1.563 30.008 3.717 7.449 1.625 14.523 4.036 21.25 7.298 3.633 1.762 6.316 4.382 7.99 7.782 3.502 7.115 6.213 14.476 7.879 22.109.646 2.957.848 6.006 1.049 9.023.33 4.921.494 9.85.729 14.776.021.448.115.904.064 1.346-1.197 10.339.885 20.616.717 30.935-.098 6.066-.26 12.134-.283 18.201-.014 3.369.324 6.739.281 10.106-.049 3.701-.365 7.399-.545 11.099-.066 1.347-.201 2.705-.086 4.042 1.07 12.454-.98 24.63-3.988 36.72-1.643 6.604-5.529 12.025-11.279 16.293-1.467 1.089-3.49 1.85-5.379 2.154-6.166.995-12.371 1.246-18.643.463-6.92-.865-13.89-1.391-20.834-2.111-8.699-.904-17.254-2.465-25.68-4.615-10.023-2.558-19.594-6.099-28.543-10.885-7.244-3.876-11.178-9.713-11.928-17.33-.475-4.8-1.336-9.568-1.828-14.367-.297-2.894-.146-5.823-.342-8.729-.096-1.437-.566-2.85-.77-4.285-.124-.857-.202-1.757-.052-2.601.436-2.452.756-4.877.225-7.364-.234-1.089-.076-2.242-.137-3.364-.457-8.521-.914-17.042-1.395-25.562a806.825 806.825 0 00-.852-13.45c-.236-3.246-.723-6.482-.85-9.731-.295-7.633-.537-15.27-.617-22.906-.05-4.827.336-9.656.332-14.484C.64 33.005.23 27.95.32 22.9c.088-4.835.783-9.629 2.561-14.252C5.294 2.37 8.191.468 15.634.416 16.76.407 17.884.414 19.01.414l.022-.227zM2.564 47.289h.051c0 7.422-.006 14.843.006 22.264.002 1.123-.023 2.262.16 3.366 2.203 13.245 2.182 26.646 3.41 39.96.887 9.613.844 19.308.891 28.967.037 7.565.961 15.019 2.21 22.473 1.26 7.523 5.595 13.241 12.767 16.992 4.73 2.474 9.812 4.467 14.898 6.318 10.012 3.645 20.535 5.658 31.16 7.189 4.055.585 8.197.662 12.28 1.126 9.395 1.067 18.722 2.61 28.3 1.608 4.619-.483 8.258-1.955 11.283-5.185 4-4.272 6.268-9.218 7.414-14.554 2.111-9.827 3.459-19.749 3.389-29.791-.031-4.497.123-8.998-.002-13.492-.438-15.834.719-31.679-.945-47.515-.82-7.8-.514-15.7-.59-23.556-.025-2.574.441-5.149.52-7.729.064-2.123.107-4.28-.223-6.374-1.236-7.829-3.912-15.291-7.068-22.663-2.094-4.887-5.438-8.448-10.617-10.791-10.988-4.97-22.69-7.526-34.854-8.591-7.328-.641-14.66-1.237-21.994-1.839a3484.313 3484.313 0 00-20.135-1.616c-4.229-.324-8.46-.663-12.697-.835-2.846-.115-5.707-.003-8.557.104-3.8.145-6.22 2.146-7.75 5.075-.736 1.412-1.424 2.927-1.656 4.454-.68 4.444-1.418 8.909-1.58 13.382-.26 7.079-.07 14.169-.07 21.253z" fill="#000"/></svg>