<svg width="122" height="159" fill="none" xmlns="http://www.w3.org/2000/svg"><path d="M43.31 158.858c-2.688-.375-6.667-.772-10.581-1.517-4.717-.896-9.314-2.233-13.662-4.382-5.758-2.847-10.756-6.656-14.66-11.73-3.332-4.333-4.787-9.346-4.238-14.864.102-1.031.172-2.077.117-3.109-.33-6.273.475-12.438 1.609-18.586.812-4.398 1.605-8.808 2.178-13.242.377-2.921.387-5.894.484-8.846.109-3.353.059-6.71.217-10.06.13-2.791.52-5.57.69-8.36.302-4.939.544-9.882.772-14.825.133-2.872.062-5.758.309-8.618.529-6.175 2.598-11.823 6.125-16.938 1.54-2.233 2.953-4.554 4.49-6.789 1.705-2.482 3.908-4.481 6.605-5.795 6.252-3.042 12.344-6.425 18.896-8.83 1.443-.53 2.84-.9 4.412-.885 1.662.018 3.359-.199 4.986-.559 3.152-.697 6.039.148 8.865 1.312 7.369 3.035 13.662 7.593 18.902 13.604 1.154 1.324 2.389 2.579 3.568 3.882 3.189 3.518 5.63 7.515 7.855 11.702 5.572 10.487 8.355 21.924 11.555 33.221 2.311 8.162 4.758 16.256 8.529 23.903 3.447 6.988 5.914 14.311 7.197 22.035.43 2.584 1.533 5.049 2.131 7.613.541 2.323.896 4.699 1.164 7.07.113 1-.156 2.06-.346 3.074-.645 3.467-2.633 5.918-5.738 7.535-5.455 2.842-10.764 5.972-16.545 8.166-1.79.679-3.516 1.538-5.23 2.396-4.76 2.38-9.844 3.727-14.992 4.946-3.496.828-6.902 2.022-10.385 2.923-4.64 1.2-9.28 2.439-13.98 3.346-3.277.633-6.66.736-11.298 1.207z" fill="#000"/></svg>