<svg width="219" height="148" fill="none" xmlns="http://www.w3.org/2000/svg"><path d="M218.043 114.671l-2.861-2.21c-.785 1.106-.16 1.744.246 2.38.521.816 1.123 1.582 1.684 2.373.855 1.207 1.117 2.559 1.037 4.017-.072 1.312-.043 2.631-.121 3.943-.102 1.721-1.021 3.075-2.438 3.87-1.754.983-3.621 1.85-5.537 2.449-7.912 2.476-15.822 4.969-23.812 7.17-3.719 1.024-7.602 1.524-11.441 2.035-6.586.876-13.213.257-19.789-.071-8.176-.407-16.301-1.85-24.475-2.195-9.594-.406-19.264-.715-28.811.045-9.285.739-18.451 2.935-27.686 4.385-4.176.656-8.414.919-12.584 1.605-7.148 1.178-14.367 1.513-21.557 2.208-6.326.611-12.643 1.138-18.988.921-2.35-.08-4.727-.549-7.006-1.162-2.475-.665-4.262-2.326-5.486-4.651-4.379-8.318-6.672-17.128-7.33-26.534-.531-7.592-.271-15.159-.367-22.736-.027-2.284.266-4.57.348-6.857.068-1.938.068-3.879.053-5.818-.025-2.808-.145-5.614-.133-8.421.027-7.056.205-14.111.131-21.165-.051-4.754-.572-9.503-.623-14.257-.051-4.716.965-9.289 2.777-13.652 1.842-4.438 4.309-8.481 7.777-11.866a253.63 253.63 0 005.023-5.033c3.27-3.377 7.4-4.691 11.934-4.862 2.19-.083 4.396.182 6.594.319 3.34.208 6.686.37 10.018.681 6.58.614 13.17 1.181 19.723 2.021 5.916.759 11.779.411 17.662-.141.701-.065 1.4-.198 2.104-.223 5.9-.206 11.807-.325 17.705-.605 7.088-.337 14.078.649 21.094 1.328.701.067 1.402.238 2.102.229 7.363-.094 14.576 1.161 21.803 2.338 3.479.566 6.951.889 10.52.652 7.648-.507 15.314-.867 22.979-1.001 4.035-.07 8.094.346 12.119.76 3.865.396 7.402 1.935 10.248 4.54 1.715 1.571 3.092 3.617 4.258 5.658 1.432 2.509 2.504 5.164 2.928 8.146.865 6.106 2.066 12.168 3.203 18.234.826 4.412 1.879 8.785 2.627 13.21.496 2.945.695 5.946.912 8.931.361 4.919.699 9.841.912 14.767.18 4.136.154 8.279.242 12.419.137 6.344.301 12.686.432 19.029.014.837-.088 1.679-.15 2.797zM103.668 19.484l-.391.242.354.448c.105-.116.273-.224.293-.352.014-.098-.162-.223-.256-.338z" fill="#000"/></svg>