<svg width="257" height="200" fill="none" xmlns="http://www.w3.org/2000/svg"><path d="M52.428 199.385c-9.344-.176-16.04-4.26-20.26-12.617-5.11-10.117-9.098-20.709-13.572-31.098-4.105-9.531-6.797-19.383-8.762-29.541-1.494-7.729-3.584-15.352-5.631-22.963C1.609 93.512 1.18 83.586.328 73.727c-.312-3.617.199-7.385.85-10.992 2.039-11.297 4.805-22.389 10.475-32.537 5.736-10.27 13.01-19.131 23.322-25.105 6.457-3.74 13.449-5.211 20.92-4.225 2.01.266 4.055.332 6.084.357 9.064.107 17.979 1.293 26.795 3.41 10.26 2.465 20.553 4.811 31.117 5.609 4.432.334 8.879.521 13.305.916 9.615.857 19.219 1.846 28.834 2.709 7.588.682 15.184 1.719 22.781 1.768 9.801.061 18.881 2.305 27.414 6.916 7.059 3.814 13.693 8.273 19.936 13.346 5.164 4.197 7.781 9.967 10.363 15.775 3.303 7.434 6.266 15.025 9.754 22.369 1.48 3.123 2.543 6.229 3.445 9.559 2.283 8.416.365 16.232-2.865 23.758-5.314 12.383-13.936 22.293-24.049 31.115-5.785 5.047-11.744 9.734-18.475 13.383-8.947 4.854-17.998 9.424-28.055 11.744-7.053 1.627-13.947 3.924-20.957 5.756-10.945 2.863-21.959 5.471-32.881 8.424-4.402 1.191-8.662 2.941-12.939 4.564-6.652 2.521-13.172 5.443-19.926 7.643-5.29 1.723-10.852 2.611-16.293 3.863-6.193 1.426-12.375 2.9-18.588 4.234-2.722.584-5.51.875-8.267 1.299zM2.414 69.891c.477 7.4.44 12.785 1.256 18.037 1.164 7.527 2.863 14.975 4.498 22.42 1.229 5.588 2.928 11.076 4.039 16.682 1.639 8.254 3.48 16.416 6.984 24.123 1.262 2.775 2.527 5.572 3.502 8.457 3.148 9.316 7.814 17.941 12.012 26.781 2.39 5.029 6.17 8.334 11.643 9.562 1.604.359 3.27.85 4.867.729 3.785-.285 7.584-.711 11.309-1.436 4.113-.799 8.096-2.408 12.229-2.939 12.355-1.588 24.14-5.082 35.453-10.15 12.379-5.547 25.389-8.965 38.5-12.16 18.146-4.422 36.492-8.178 53.49-16.42 6.787-3.291 13.285-6.939 19.064-11.803 2.139-1.801 4.207-3.688 6.381-5.445 9.863-7.98 17.479-17.717 22.734-29.254 2.016-4.424 3.529-8.965 2.605-14.016-.477-2.609-.721-5.318-.596-7.959.117-2.5-.391-4.744-1.148-7.068-3.439-10.559-8.459-20.441-12.93-30.557-1.93-4.367-4.979-7.986-8.824-10.844-3.465-2.572-7.07-4.955-10.529-7.535-7.928-5.908-16.785-9.527-26.57-10.73-4.533-.559-9.125-.615-13.684-.994-7.844-.654-15.688-1.328-23.521-2.098-4.428-.436-8.822-1.217-13.252-1.588-5.314-.447-10.656-.564-15.979-.936-4.688-.328-9.414-.518-14.037-1.289-7.016-1.168-13.98-2.686-20.924-4.236-9.707-2.166-19.46-3.807-29.451-3.648-1.645.027-3.303-.146-4.936-.369-8.742-1.193-16.797.822-23.881 5.869-8.295 5.908-14.645 13.629-19.508 22.617-3.67 6.785-6.064 14.018-7.766 21.461-1.411 6.179-2.276 12.482-3.03 16.736z" fill="#000"/></svg>