<svg width="177" height="40" fill="none" xmlns="http://www.w3.org/2000/svg"><path d="M176.123 39.736c-.645.018-1.268.09-1.881.04-3.586-.287-7.17-.601-10.752-.917-.477-.041-.967-.076-1.416-.225-2.533-.844-5.166-.972-7.797-1.14a648.823 648.823 0 01-8.373-.578c-7.977-.605-15.969-.771-23.961-.931-3.752-.074-7.506-.115-11.26-.166-8.072-.111-16.145-.196-24.217-.34-3.914-.068-7.826-.215-11.738-.383-3.59-.154-7.184-.314-10.766-.598s-7.152-.725-10.727-1.094c-2.143-.221-4.287-.414-6.426-.654-4.127-.463-8.262-.867-12.371-1.455-3.553-.51-7.068-1.271-10.611-1.864-3.307-.554-6.627-1.034-9.941-1.542-2.525-.39-5.053-.752-7.574-1.166-1.11-.182-2.197-.395-3.316-.062-.703.209-1.213-.133-1.676-.647-.814-.91-.934-2.007-.883-3.138.025-.54.402-.887.939-.912.555-.024 1.117.023 1.67.092 3.412.417 6.816.89 10.23 1.267 6.996.77 13.91 2.062 20.84 3.23 4.344.735 8.705 1.228 13.074 1.687 5.162.543 10.35.856 15.508 1.42 7.717.844 15.453 1.207 23.207 1.31 5.35.07 10.703.024 16.053.127 8.232.157 16.461.405 24.693.595 2.717.063 5.439-.012 8.154.105 5.988.262 11.98.512 17.959.94 6.053.434 12.092 1.056 18.133 1.644 1.186.115 2.361.402 3.516.71.416.11.961.44 1.092.8.431 1.17.958 2.365.618 3.845zM8.596 2.863c.715-.173 1.236-.415 1.752-.403 1.678.04 3.352.16 5.027.274 3.582.245 7.162.65 10.75.73 8.861.198 17.723.735 26.592.234 4.145-.234 8.293-.401 12.44-.582 2.392-.104 4.786-.171 7.181-.257.64-.023 1.28-.024 1.916-.086 5.33-.52 10.686-.547 16.031-.795 3.83-.18 7.658-.431 11.488-.568 4.551-.164 9.105-.37 13.654-.328 10.875.1 21.74-.133 32.607-.457 4.309-.128 8.629-.03 12.941.04 1.434.024 2.861.268 4.291.432 1.082.125 1.982.635 2.627 1.5.695.933 1.662 1.733 1.756 3.207-.479.096-.918.282-1.342.25-2.307-.168-4.605-.444-6.912-.576-1.672-.095-3.355-.065-5.033-.015-5.34.159-10.68.37-16.02.523-2.156.062-4.314.015-6.473.028-2.154.014-4.311.069-6.465.059-4.625-.024-9.252-.18-13.875-.094-5.508.103-11.01.4-16.516.615-1.43.056-2.859.104-4.287.177-2.865.148-5.732.3-8.596.474-2.87.174-5.738.394-8.607.562-3.027.178-6.059.299-9.084.482-3.025.183-6.047.444-9.072.614-6.625.372-13.256.28-19.885.184-2.309-.033-4.607-.327-6.914-.46-5.17-.297-10.334-.806-15.477-1.432-1.496-.182-2.977-.364-4.48-.385-.959-.014-1.547-.408-1.727-1.276-.155-.77-.175-1.57-.288-2.671z" fill="#000"/></svg>