<svg width="164" height="179" fill="none" xmlns="http://www.w3.org/2000/svg"><path d="M163.549 87.288c.445 4.271.031 8.485-.42 12.702-.229 2.145-.199 4.332-.604 6.439-1.203 6.275-2.525 12.529-3.875 18.775-.994 4.607-2.096 9.191-3.168 13.783-.455 1.945-.953 3.879-1.436 5.818-1.252 5.045-2.455 10.104-3.781 15.129a60.474 60.474 0 01-2.236 6.834c-1.107 2.795-2.971 5.119-5.227 7.078-.828.719-1.852 1.381-2.893 1.656-3.781.998-7.598 1.869-11.426 2.674-1.07.225-2.227.033-3.344.061-1.502.037-3.004.137-4.506.145-1.355.008-2.711-.131-4.064-.096-4.479.115-8.945.146-13.363-.822-.766-.168-1.6-.156-2.385-.066-1.29.146-2.5-.039-3.777-.26-2.1-.363-4.275-.26-6.402-.498-4.924-.555-9.883-.945-14.74-1.867-5.736-1.09-11.396-2.754-16.348-5.955-3.945-2.549-6.973-6.123-8.744-10.539-1.916-4.777-2.7-9.869-3.545-14.908-1.016-6.062-1.766-12.17-2.574-18.266-.492-3.723-.697-7.49-1.35-11.182-.793-4.48-1.801-8.932-2.94-13.338a121.513 121.513 0 00-3.474-11.224c-1.12-3.069-2.557-6.032-3.97-8.986-2.134-4.467-4.3-8.92-6.583-13.312-1.51-2.906-3.213-5.714-4.893-8.527a678.364 678.364 0 00-7.232-11.863c-2.074-3.315-4.314-6.528-6.354-9.864-2.047-3.35-3.63-6.944-4.83-10.676-.906-2.813-1.773-5.667-2.3-8.567-.933-5.16.01-9.917 4.155-13.528 2.297-2 5.18-2.906 8.158-3.141C16.576.622 20.098.663 23.61.559 24.73.526 25.847.434 26.966.43c4.15-.018 8.3.023 12.45-.024 2.235-.026 4.47-.179 6.702-.291 4.975-.249 9.895.275 14.8 1.004 3.634.54 7.27 1.042 10.897 1.611 1.654.259 3.283.681 4.938.945 1.338.214 2.693.396 4.043.425 1.514.032 3.02-.233 4.256 1.062.275.289 1.05.221 1.566.134 1.34-.223 2.658-.569 3.992-.828 1.94-.377 3.64.084 5.049 1.525 1.45 1.486 2.949 2.929 4.387 4.429 3.979 4.153 7.803 8.466 11.939 12.455 5.051 4.872 10.283 9.566 15.584 14.166 2.951 2.559 6.238 4.724 9.303 7.156 1.809 1.437 3.484 3.044 5.209 4.589.652.586 1.23 1.263 1.91 1.816 4.387 3.575 7.799 7.983 10.955 12.627 3.123 4.598 5.738 9.453 7.07 14.867.744 3.007 1.039 6.123 1.533 9.19zM88.385 25.021l2.156.963.418-.363c-.18-.519-.21-1.229-.572-1.517-.69-.547-1.282-.038-2.002.917zm35.91 56.627c-.176.223-.402.387-.412.564-.008.127.371.411.406.386.215-.155.383-.378.566-.579-.171-.112-.341-.226-.56-.371zm-54.266 81.567l-.246.363 1.025.691.246-.363-1.025-.691zm8.799-108.29c-.074.11-.21.225-.203.33.008.12.143.232.223.348l.314-.446-.334-.232zm38.104 109.085c-.111-.088-.223-.178-.336-.266-.074.16-.15.322-.227.482.133.047.279.146.395.119.078-.017.115-.216.168-.335z" fill="#000"/></svg>