<svg width="338" height="277" fill="none" xmlns="http://www.w3.org/2000/svg"><path d="M136.018.775c7.32.223 14.293 2.085 21.199 4.129 4.734 1.401 9.316 3.312 14.021 4.823 6.445 2.072 12.967 3.915 19.416 5.977 7.393 2.363 14.842 4.598 22.08 7.373 6.447 2.472 13.084 3.083 19.842 3.547 10.037.689 19.832 2.917 29.564 5.334 5.473 1.36 10.875 3.055 16.236 4.819 7.783 2.561 14.393 6.994 20.059 12.928a82.18 82.18 0 007.789 7.17c4.686 3.783 7.961 8.693 11.373 13.516.402.566.713 1.308 1.264 1.64 5.064 3.054 7.859 7.993 10.609 12.897 2.135 3.81 3.98 7.792 5.766 11.783.738 1.65 1.297 3.504 1.393 5.295.35 6.459 1.307 12.875.723 19.405-.463 5.193-.436 10.457-.242 15.675.566 15.198-1.469 30.149-3.709 45.114-1.586 10.602-2.523 21.302-4.123 31.901-.861 5.706-1.998 11.477-3.957 16.875-1.562 4.303-4.125 8.433-7.004 12.03-6.732 8.414-15.213 14.674-25.424 18.408-4.512 1.65-8.941 3.602-13.561 4.861-6.256 1.705-12.621 3.063-19.002 4.234-9.725 1.783-19.486 3.369-29.26 4.872-10.398 1.599-20.764 1.925-31.131-.662-5.609-1.399-11.412-1.996-17.07-3.215-16.041-3.455-31.826-7.853-47.115-13.835-4.836-1.893-9.504-4.191-13.555-7.713-3.709-3.225-8.271-5.487-11.883-8.801-6.959-6.389-13.658-13.081-20.191-19.91-5.752-6.014-11.08-12.431-16.7-18.574-1.802-1.971-4.026-3.55-5.903-5.459-5.643-5.734-11.164-11.588-16.826-17.303-2.682-2.707-5.633-5.146-8.352-7.818-2.613-2.568-5.064-5.3-7.621-7.927-4.533-4.657-8.881-9.522-13.691-13.876-6.586-5.963-11.74-13-16.174-20.555-2.953-5.031-4.453-10.607-3.863-16.624.359-3.656.574-7.236 2.03-10.745 1.798-4.321 4.57-7.82 7.995-10.783 5.44-4.71 10.998-9.301 16.693-13.7 6.703-5.178 13.559-10.163 20.439-15.107 4.93-3.542 10.213-6.617 14.975-10.363 8.979-7.063 18.107-13.944 26.28-22.006 6.628-6.537 13.491-12.865 20.595-18.878 5.277-4.467 11.133-8.296 18.047-9.87 2.59-.586 5.308-.604 7.969-.882zM19.846 102.8c-4.332-1.799-6.088-1.278-7.703 2.564l4.428 1.614.422-2.691 2.855-1.488c1.438-1.177 3.227-2.082 3.562-4.33-2.998.414-2.998.414-3.564 4.331zm98.506-86.985c-1.199 2.11-2.01 3.587-1.121 5.513 2.515-1.841 2.542-1.946 1.121-5.513zM36.291 86.69l-2.197 5.271c3.795-1.176 3.795-1.176 2.197-5.271zm93.104 76.183c-.754-.49-1.389-1.074-1.537-.97-.566.403-.977 1.024-1.445 1.565.43.244.924.756 1.271.67.527-.129.955-.673 1.711-1.265zm8.402.772c-.549.66-1.139 1.064-1.1 1.391.066.555.531 1.061.828 1.587.461-.368 1.236-.695 1.293-1.118.063-.472-.531-1.028-1.021-1.86zm-.576 43.847l.064 1.09 2.531-.377c-.029-.238-.059-.475-.086-.713h-2.509zM110.674 30.56l.283-.788-2.5-.963c-.1.288-.201.577-.303.865l2.52.886zm6.099 129.856c-.193.475-.488.842-.416 1.112.078.299.494.509.764.757.215-.383.531-.75.592-1.156.023-.161-.52-.407-.94-.713zm7.885 2.158c-.865-.227-1.334-.432-1.795-.422-.156.004-.301.556-.449.857.354.141.713.399 1.059.383.281-.011.547-.356 1.185-.818zm9.315 3.098l-.463-.562c-.162.277-.359.544-.451.844-.02.057.375.242.578.368.111-.217.224-.432.336-.65zM115.15 24.039l-.584-.487c-.098.226-.312.482-.264.671.051.195.354.326.547.485.1-.222.202-.445.301-.669z" fill="#000"/></svg>