<svg width="78" height="185" fill="none" xmlns="http://www.w3.org/2000/svg"><path d="M74.107 56.347c0 .408.041 1.52-.008 2.625-.154 3.521-.367 7.04-.508 10.56-.139 3.423-.143 6.83.256 10.26.441 3.802 1.25 7.524 1.896 11.283.408 2.375.52 4.802.727 7.21.69 8.042.781 16.103.63 24.167-.044 2.309-.313 4.616-.548 6.917-.412 4.008-.77 8.023-1.35 12.008-.506 3.483-1.275 6.929-1.945 10.388a247.16 247.16 0 01-1.2 5.921c-.413 1.867-1.009 3.673-1.655 5.481-.67 1.871-1.115 3.919-1.156 5.9-.12 5.644-3.45 8.87-8.107 10.964-2.555 1.148-5.346 1.813-8.08 2.496-2.832.707-5.723 1.182-8.592 1.737-.59.114-1.213.258-1.797.187-3.693-.451-7.447-.479-11.039-1.633a27.145 27.145 0 01-5.23-2.32c-2.797-1.602-5.81-2.849-8.346-4.873-4.205-3.356-8.082-7.01-9.93-12.284-.199-.57-.436-1.136-.562-1.722-.836-3.864-2.549-7.434-3.717-11.179-1.316-4.228-2.656-8.502-3.328-12.858-.609-3.949-.482-8.033.113-12.053.473-3.186 1.018-6.368.88-9.617-.04-.9 0-1.827.171-2.709.432-2.203.33-4.387.201-6.615-.119-2.088.191-4.211.43-6.305.443-3.9 1.035-7.78 1.03-11.727-.005-1.906.284-3.81.368-5.72.043-.997.02-2.015-.139-2.997-.26-1.615-.307-3.206.025-4.808.102-.493.207-.99.24-1.492.232-3.614.613-7.229.623-10.844.012-4.452.512-8.834 1.072-13.236.457-3.588.53-7.224.834-10.833.518-6.122.951-12.262 3.223-18.074.182-.468.322-.957.441-1.445 1.64-6.723 5.678-11.932 10.486-16.659 1.04-1.023 2.273-1.587 3.71-1.885 2.597-.54 5.165-.587 7.806-.244 4 .52 7.99 1.048 11.893 2.111C48.4 3.648 52.9 4.846 57.111 6.8c5.58 2.586 9.834 6.432 11.9 12.546 2.111 6.248 3.617 12.598 4.301 19.13.502 4.804.734 9.637 1.037 14.46.057.897-.119 1.807-.242 3.411zM69.08 102.95l-.506.16c.107.104.207.281.324.295.162.018.336-.09.506-.143l-.324-.312zM9.131 56.41l.207.035-.074-.19-.133.155z" fill="#000"/></svg>