<svg width="110" height="116" fill="none" xmlns="http://www.w3.org/2000/svg"><path d="M56.02 7.054c3.152-2.536 3.748-2.593 6.268-.64-.193.286-.367.602-.596.87-.508.597-.518.587.164 1.692l-1.748 2.879c.535.605 1.072 1.174 1.562 1.78.498.616 1.053 1.22 1.393 1.92.322.664.4 1.447.611 2.279-1.818.5-3.439.232-4.846-1.062-.584-.537-1.14-1.104-1.646-1.597-.939-.08-1.395.568-1.965.96-1.91 1.312-3.824 2.605-6.094 3.236-.227.063-.465.086-.654.12-.195-.065-.369-.082-.49-.171-1.64-1.201-1.8-1.901-.676-3.514.352-.502.881-.897 1.375-1.28.564-.436 1.215-.763 1.773-1.208 3.03-2.421 2.63-2.23.801-4.85-1.27-1.822-2.332-3.795-3.44-5.728-.499-.866-.466-1.822.03-2.203.668-.515 1.44-.645 2.258-.375.971.32 1.564 1.085 2.133 1.854.945 1.28 1.842 2.6 2.78 3.889.27.376.61.702 1.007 1.149zM45.252 52.563c.428.558.646.883.906 1.172.426.476.875.932 1.322 1.391 1.523 1.566 2.146 3.442 2.004 5.743-1.039.096-1.896-.305-2.713-.727-.697-.359-1.502-.727-1.945-1.322-1.209-1.629-3.02-2.566-4.172-4.133-.879.173-1.57.317-2.266.445-1.309.24-2.195-.268-2.53-1.523-.12-.45-.25-1.037-.067-1.408.74-1.489-.125-2.603-.76-3.76-.346-.634-.77-1.205-.764-1.976.008-.803.541-1.439 1.342-1.33.688.093 1.391.33 2 .662.547.3 1.037.765 1.441 1.249.99 1.178 2.105 1.261 3.406.594.781-.4 1.594-.74 2.398-1.092.658-.287 1.33-.54 1.986-.828 2.22-.97 4.07 1.144 4.223 3.174.045.618-.25 1.11-.789 1.373-.932.455-1.898.839-2.844 1.266-.647.292-1.285.607-2.178 1.03zm25.572-12.382c-.467.291-.951.558-1.398.878-.63.453-1.285.577-2.062.291-.816-1.061-.832-2.15-.049-3.261.684-.969 1.37-1.936 2.146-3.031-.482-.534-.922-1.086-1.428-1.57-1.05-1.004-1.83-2.193-2.615-3.401-.686-1.054-.701-2.052-.215-3.317.543.071 1.145-.003 1.566.237.82.467 1.588 1.06 2.29 1.694 1.185 1.063 2.3 2.2 3.468 3.329 1.145-.296 1.703-1.24 2.477-1.883.898-.748 1.838-1.264 3.059-.957.543.136 1.072.229 1.451.733.279.374.672.662 1.098 1.068-.053 2.14-1.887 3.331-2.98 5.144.245.297.491.683.817.979 1.258 1.137 1.818 2.546 1.752 4.329-1.57.635-2.877-.116-4.158-.882-.402-.241-.725-.623-1.059-.965-.518-.531-1.146-.466-1.787-.386l.043.051c-.377-.209-.752-.338-1.121.016a1.994 1.994 0 00-.328.234l-1.031.717.064-.047zm25.373 5.117c-.936-1.042-1.69-1.858-2.416-2.696-.68-.781-1.39-1.545-1.977-2.392-.648-.933-.096-1.936 1.02-2.039.825-.076 1.599.027 2.263.548.75.588 1.482 1.197 2.21 1.809.73.611 1.442 1.238 2.245 1.929.916-.417 1.467-1.186 2.107-1.869.953-1.015 2.523-1.351 3.715-.822.924.41 1.611 1.023 1.516 2.176-.033.392-.043.796.016 1.182.133.868-.086 1.509-.846 2.052-.629.448-1.109 1.099-1.637 1.64.359.839.738 1.527.945 2.263.184.657.174 1.368.273 2.25-2.006-.215-3.668-.796-5.184-2.005l-2.146 1.001c-1.467.686-3.01 1.038-4.631.987-.84-.026-1.293-.562-1.297-1.387-.008-1.331.779-2.219 1.69-3.015.597-.515 1.259-.954 2.134-1.612zm5.647 46.057c.689-.647 1.201-1.136 1.721-1.617a4.752 4.752 0 012.781-1.265c.936-.102 1.77.497 1.82 1.442.102 1.922-.029 3.812-1.398 5.508 1.682 1.381 2.84 3.01 2.795 5.35-1.217.371-2.301-.268-3.34-.669-1.006-.388-1.875-1.134-2.893-1.778-1.604.667-3.277 1.367-4.957 2.059-.293.121-.59.244-.898.312-.83.184-1.66-.441-1.615-1.289a4.03 4.03 0 01.418-1.594c.547-1.053 1.193-2.056 1.9-3.251-.141-.358-.273-.9-.553-1.353-.289-.469-.725-.847-1.084-1.273-1.289-1.528-1.912-3.265-1.688-5.275 1.674-.105 2.566.231 3.779 1.461.561.568 1.064 1.191 1.621 1.762.442.451.927.86 1.591 1.47zM23.887 15.559c-1.262.709-2.434 1.378-3.617 2.03-.688.378-1.322.782-2.219.705-.562-.048-1.158.424-1.754.617-.51.167-.945-.006-1.232-.466-.5-.799-.598-1.634-.17-2.5.543-1.103 1.322-1.962 2.418-2.567.967-.533 2.002-1.023 2.607-2.181-.56-1.43-2.217-1.938-2.984-3.186-.043-.767.295-1.351.89-1.612.88-.39 1.851-.513 2.786-.118.514.216 1.002.496 1.48.783.682.41 1.342.856 2.117 1.354.508-.265 1.084-.519 1.611-.853.961-.606 1.953-.551 2.998-.304 1.148.27 1.543 1.295 2.086 2.117.18.272-.055.94-.277 1.322-.23.394-.67.67-1.035.979-.484.408-.984.796-1.46 1.178.288 1.453.597 2.827.823 4.214.12.741-.492 1.128-1.24.835-.666-.261-1.363-.483-1.97-.849-.6-.359-1.104-.878-1.858-1.498zM69.8 69.525c-.62-.988-1.26-1.993-1.888-3.004-.56-.9-.89-1.879-.896-2.941-.012-1.148.902-1.818 1.922-1.316.69.34 1.328.871 1.863 1.436.762.804 1.41 1.717 2.166 2.658.754-.309 1.459-.647 2.195-.889 1.76-.578 3.01.334 3.387 2.197.287 1.416.084 2.497-1.338 3.193.424 2.244 2.582 3.941 2.002 6.635-1.824-.51-3.607-.668-4.887-2.23-.848-1.033-1.561-1.008-2.711-.24-.994.662-1.965 1.361-2.975 1.996-.707.444-1.428.207-1.803-.537-.576-1.145-.705-2.309.105-3.389.855-1.14 1.779-2.227 2.859-3.569zM11.23 50.851c1.118 2.562 1.163 2.903.618 5.021-.432-.135-.88-.213-1.27-.413-.777-.399-1.58-.788-2.266-1.318-2.105-1.625-2.139-1.57-4.635-.154l-1.54-.726c-.626-1.331-.185-2.431.368-3.465-.654-1.277-1.22-2.5-1.889-3.662-.777-1.35-.732-2.565.41-3.763 2.537.159 3.207 2.886 5.266 3.931.984-.254 1.61-1.102 2.271-1.864.531-.613 1.078-1.16 1.855-1.454 1.615-.61 2.89-.201 3.885 1.275 1.016 1.503 1.057 1.998-.066 3.363-.9 1.101-1.938 2.091-3.008 3.229zm92.602 13.35c2.658-.696 3.486-.566 4.559.635.945 1.057 1.014 1.836.301 3.836.988 1.641 1.689 3.421 1.006 5.64-.648-.388-1.156-.722-1.693-1.003-.637-.332-1.322-.574-1.938-.936-.541-.319-1.018-.75-1.555-1.157-1.406.413-2.787.794-4.15 1.228-.764.243-1.52.67-2.19-.122-.618-.726-.68-2.003-.1-2.894.384-.592.872-1.123 1.354-1.645.254-.275.594-.475.975-.77-.389-.548-.713-.985-1.018-1.435-.758-1.124-1.506-2.254-2.262-3.38-.908-1.356-.867-2.882-.67-4.384.062-.48.561-.903.814-1.286 1.033.01 1.336.75 1.744 1.303 1.133 1.542 2.203 3.132 3.338 4.673.464.63 1.03 1.182 1.485 1.697zm3.719-56.151l-3.602 2.938c.846 2.79.947 3.539.713 5.375-2.041-.385-3.58-1.565-5.014-3.02-1.838.579-3.65 1.148-5.48 1.723l-1.592-.97c-.4-1.22.541-1.812 1.107-2.52.541-.674 1.238-1.223 1.875-1.834-.115-.822-.838-1.113-1.377-1.547-.553-.446-1.15-.837-1.697-1.23.514-1.72 1.48-2.403 2.943-2.011.992.266 1.95.688 2.896 1.1.576.254 1.104.623 1.773 1.008l1.311-.92c.912-.642 1.783-1.352 2.744-1.91 1.322-.768 2.977-.47 3.9.667.553.68.408 1.49.146 2.267.113-.384-.041-.66-.414-.464-.582.304-.623.816-.232 1.348zM16.31 105.689c-.306-.277-.458-.484-.661-.586-2.422-1.205-4.201-3.15-5.94-5.143-.204-.236-.44-.495-.52-.783-.121-.439-.281-.977-.131-1.357.22-.554.797-.305 1.264-.217 1.426.27 2.738.72 3.95 1.602 1.22.887 2.616 1.525 3.937 2.268.775.436 1.564.697 2.502.639 1.568-.096 2.764.576 3.46 2.051.169.352.464.645.708.959.56.727.918 1.457.525 2.432-.148.369.033.873.074 1.479l-3.133-.706c-1.348.833-2.596 1.689-3.922 2.4-1.262.676-2.605 1.199-3.848 1.76-.705-.521-1.37-.955-1.963-1.471-.383-.334-.54-.861-.191-1.294.492-.617 1.027-1.226 1.639-1.718.81-.651 1.655-1.246 2.25-2.315zm32.87-19.157c.475 1.775 1.021 3.537.238 5.474-1.443.105-2.447-.719-3.36-1.726-.522-.574-1.03-1.161-1.575-1.778l-2.463.611c-.67-1.409-.012-2.717-.084-4.3-.854-1.382-1.85-3.005-2.855-4.621-.254-.406-.566-.776-.799-1.192-.525-.939-.02-1.953 1.057-2.165.918-.181 1.77.009 2.457.623.65.582 1.22 1.257 1.82 1.894.596.63 1.05 1.419 2.057 1.763.195-.12.541-.218.695-.444.938-1.372 2.275-1.302 3.65-1.049.973.18 1.807 1.119 1.965 2.122.05.314.066.634.117.948.107.682-.06 1.234-.607 1.703-.78.671-1.514 1.394-2.313 2.137zm17.83 28.609l.068-.621c-.49 0-.982.037-1.465-.018-.213-.023-.46-.189-.598-.366-.287-.369-.51-.788-.723-1.128.488-1.762 1.381-3.113 3.088-4-1.057-1.531-2.318-2.689-3.57-3.791.451-1.35 1.541-1.453 2.559-1.375.852.064 1.695.408 2.506.723.584.229 1.105.613 1.705.956.908-.644 1.764-1.339 2.701-1.894 1.596-.945 3.697-.049 4.14 1.707.036.146.05.381-.034.461-.6.566-.369 1.252-.37 1.927 0 .276-.267.565-.448.822-.32.456-.668.892-1.09 1.45v3.244c-.668.662-1.199.393-1.69.152-1.35-.656-2.567-.445-3.813.348-.926.59-1.873 1.219-3.023 1.34l.057.063zM18.568 79.488c1.754 2.879 1.924 3.779 1.012 5.576-1.262-.604-2.609-1.004-3.72-1.956-.985-.843-1.706-.835-2.804-.128a7.08 7.08 0 00-.936.738c-.64.594-1.342.416-1.992.108-.584-.276-.639-.865-.539-1.45.135-.781.164-1.607.451-2.33.467-1.175.311-2.161-.469-3.112a2.583 2.583 0 01-.47-.825c-.187-.596-.478-1.229.07-1.791.456-.469 1.04-.359 1.575-.211.451.127.883.346 1.305.562.422.217.822.479 1.35.792.44-.417.861-.865 1.33-1.254.967-.799 2.053-1.219 3.322-.873.992.27 1.617 1.033 1.713 2.055.166 1.773.09 2.042-1.198 4.099z" fill="#000"/></svg>