<svg width="81" height="99" fill="none" xmlns="http://www.w3.org/2000/svg"><path d="M16.512 39.034c-.818.469-1.719.824-2.418 1.418-1.818 1.541-3.738 3.023-5.268 4.826-2.613 3.082-2.236 5.8.752 8.875.516.532 1.377.754 2.107 1.041.359.143.791.086 1.182.158 2.15.396 2.838 1.336 2.688 3.683-4.539 1.837-8.191.372-11.334-3.042C2.16 53.756.742 51.231.662 48.11c-.029-1.116.129-2.148.709-3.196 2.176-3.942 5.152-7.044 9.041-9.322 1.295-.759 2.627-.674 3.939-.404.955.197 1.646.941 1.855 1.975.134.652.216 1.316.306 1.871zm-.815 35.189c-3.139 1.705-5.004 4.538-6.361 7.595-1.791 4.034-.275 8.454 4.742 9.099.809.104 1.639.543 2.316 1.029 1.117.803 1.068.871.953 2.636-2.967 1.339-5.865 1.267-8.625-.537a44.053 44.053 0 01-3.676-2.663C1.898 88.829.95 81.801 2.997 78.751c1.021-1.521 1.766-3.236 2.838-4.717 1.895-2.615 4.385-3.933 7.867-2.417 1.241.538 1.347 1.68 1.995 2.606zm62.848.783c-2.172-.405-3.203 1.236-4.402 2.549-1.281 1.404-1.986 3.068-1.916 5.004.16 4.469 2.162 7.967 5.857 10.383 1.156.756 1.27 1.895 2.086 3.016-.596 0-1.033-.133-1.312.02-2.775 1.525-4.85.258-6.814-1.611-1.793-1.707-3.621-3.365-4.758-5.635-1.203-2.4-1.961-4.893-1.693-7.597.436-4.37 3.023-7.373 6.307-9.989 1.439-1.146 2.904-1.118 4.5-.732 1.156.278 1.707 1.075 1.836 2.223.08.742.192 1.484.309 2.369zm-28.203 8.789c-2.471-.204-5.102-.346-7.637.484-1.666 4.327 0 8.795 4.213 10.922 1.227.619 2.123 1.311 2.443 2.828-1.02.273-2.055.555-3.092.83-.97.259-1.873.111-2.787-.316-6.078-2.842-9.588-10.148-7.94-16.635.177-.691.489-1.35.757-2.016.322-.803.904-1.277 1.77-1.441 3.009-.566 6.017-.787 9.058-.231 1.443.265 2.445 1.169 3.32 2.19.846.986 1.026 2.133-.105 3.385zM78.367 7.679c-1.639.173-3.059.322-4.479.473-1.869.198-2.967 1.123-3.516 3.024-.914 3.177-.568 6.177.811 9.078.307.646 1.068 1.132 1.713 1.548 1.793 1.156 3.717 2.14 4.842 4.294-2.275.993-4.438 1.114-6.715-.064-5.531-2.859-7.676-7.852-7.055-14.001.189-1.873.906-3.711 1.525-5.515.555-1.614 1.795-2.739 3.453-3.027 1.953-.339 3.959-.414 5.945-.503 1.051-.047 1.832.587 2.258 1.518.455.99.789 2.034 1.218 3.175zm-32.469 3.714c-1.406-.777-1.426-.775-1.982.252-1.387 2.552-1.094 5.109.912 7.237a11.68 11.68 0 002.188 1.838c1.465.932 2.938 1.808 3.176 3.814-.607.146-1.408.178-2.039.522-1.352.737-2.52.55-3.83-.149-2.68-1.428-4.895-3.365-6.465-5.923-1.766-2.877-1.916-6.065-.959-9.239.625-2.069 2.338-3.202 4.301-3.838 1.744-.566 3.539-.995 5.332-1.387 2.109-.46 3.535.435 4.182 2.529.209.675.352 1.372.59 2.318-1.1.394-2.201.771-3.287 1.182-.725.274-1.428.598-2.141.9l.022-.056zM19.643 5.522c-1.039-.052-1.734-.054-2.424-.128-2.139-.231-3.77.607-4.85 2.409-.896 1.496-1.648 3.077-2.469 4.631.322.533.617.91.797 1.336.553 1.315 1.652 1.638 2.914 1.669.555.013 1.111-.062 1.668-.07 2.084-.035 3.047.77 3.398 2.847.053.306.033.623.047.914-5.045 1.94-9.947.493-13.146-2.913-1.338-1.426-1.99-3.256-1.725-5.305.34-2.606 1.486-4.889 2.941-7.001 1.041-1.513 2.8-2.109 4.445-2.675 1.188-.409 2.5-.542 3.768-.621 2.057-.129 3.021.593 3.75 2.55.261.7.524 1.398.886 2.357zm25.193 38.429c-.252.116-.39.217-.54.242-4.278.727-4.392 3.824-2.905 7.098.789 1.739 2.426 3.104 3.732 4.593.414.47.96.854 1.512 1.164 1.594.898 2.852 2.007 2.773 4.196-1.057.166-2.268.433-3.488.51-.498.033-1.061-.277-1.53-.545-3.825-2.193-6.876-5.229-8.98-9.066-1.952-3.558-2.261-7.306.17-10.848 1.378-2.006 3.587-2.52 5.85-2.732.778-.073 1.323.406 1.73 1.074.789 1.296 1.463 2.629 1.676 4.314zM76.08 56.777c-2.188.56-4.396.301-6.566-.143-1.78-.365-2.973-1.744-3.537-3.299-1.027-2.832-2.094-5.746-2.438-8.708-.52-4.483 1.705-7.554 6.498-7.955.477-.04.957-.057 1.434-.051 3.002.033 3.914.938 4.193 4.226-.787 0-1.566-.007-2.346.001-2.611.027-4.088 1.564-3.705 4.09.307 2.034.805 4.047 1.332 6.04.33 1.257 1.188 1.892 2.59 2.065 2.639.33 2.998.967 2.545 3.734z" fill="#000"/></svg>