<svg width="106" height="83" fill="none" xmlns="http://www.w3.org/2000/svg"><path d="M13.799.365c2.385-.263 4.63.217 6.824 1.064 2.686 1.036 5.34 2.131 7.836 3.577.07.04.137.088.209.119 3.959 1.641 7.205 4.409 10.715 6.763 2.25 1.511 4.52 2.992 6.779 4.49 2.197 1.455 4.414 2.88 6.582 4.379 3.56 2.463 7.414 4.41 11.199 6.48 4.064 2.224 8.184 4.355 11.836 7.26 1.717 1.366 3.17 2.916 4.07 4.944.29.657.699 1.27.934 1.944 1.096 3.158 3.377 5.393 5.82 7.48 2.004 1.71 4.104 3.31 6.14 4.982.489.402.93.873 1.349 1.352 1.732 1.984 3.49 3.949 5.154 5.989 1.311 1.607 2.693 3.207 3.693 5.005 1.398 2.512 2.424 5.215 2.447 8.184.016 2.01-.604 3.782-1.918 5.288a26.297 26.297 0 01-2.188 2.216c-.904.816-1.97 1.024-3.121.545-4.28-1.779-8.506-3.584-12.16-6.599-4.191-3.458-8.773-6.406-13.361-9.323-2.355-1.498-4.711-3-7.064-4.502-.27-.172-.52-.379-.805-.519-2.727-1.331-5.422-2.729-8.2-3.947-1.966-.862-4.042-1.478-6.07-2.202-.601-.215-1.237-.362-1.8-.655-2.053-1.073-4.082-2.192-6.115-3.3-.982-.535-1.924-1.155-2.938-1.619-3.057-1.396-6.006-2.977-8.902-4.679-2.477-1.454-5.055-2.737-7.61-4.052-2.728-1.403-4.95-3.494-7.362-5.327-.381-.29-.684-.686-1.08-.948C10.62 32.06 7.61 28.297 4.72 24.491c-2.027-2.67-3.55-5.774-4.154-9.1-.684-3.75-.561-7.486 1.838-10.805 1.129-1.56 2.555-2.612 4.35-3.21C9.047.613 11.38.104 13.799.365zm79.916 56.981c-.16.258-.352.479-.428.734-.023.077.268.249.414.377.143-.242.305-.479.414-.735.02-.043-.187-.182-.4-.376z" fill="#000"/></svg>