<svg width="156" height="159" fill="none" xmlns="http://www.w3.org/2000/svg"><path d="M6.811 60.239c.5-.709 1.09-1.373 1.486-2.137 1.137-2.2 2.084-4.504 3.312-6.649 1.584-2.763 3.303-5.456 5.084-8.097 1.691-2.509 3.396-5.037 5.354-7.336 3.102-3.646 6.32-7.208 9.676-10.622a151.46 151.46 0 019.635-8.965c2.36-2.014 5.006-3.695 7.533-5.509.758-.544 1.553-1.039 2.23-1.715-2.125.101-3.56 1.607-5.508 2.278.697-.62 1.312-1.387 2.105-1.835 5.36-3.026 10.75-5.999 16.654-7.869.291-.092.607-.1.975.001-3.859 2.537-8.467 3.581-12.87 6.34.956.12 1.41.321 1.726.19 1.033-.423 2.014-.971 3.018-1.464 4.31-2.118 8.811-3.724 13.328-5.334C75.395-.212 80.201-.066 85.16.66c5.471.802 10.8 2.154 16.121 3.587 3.625.976 7.27 1.879 10.877 2.914 7.16 2.051 13.607 5.505 19.445 10.108 1.568 1.237 3.041 2.6 4.631 3.81 2.789 2.122 4.811 4.869 6.648 7.793.422.671.959 1.271 1.463 1.889 1.773 2.178 3.418 4.435 4.416 7.092 1.35 3.586 2.932 7.106 3.977 10.779 1.549 5.451 2.643 11.011 2.668 16.742.023 5.361-.121 10.706-1.055 15.99-1.041 5.916-2.557 11.691-5.328 17.088-2.039 3.97-3.541 8.27-5.955 11.983-4.709 7.239-10.229 13.874-16.434 19.938-4.545 4.441-9.52 8.275-14.871 11.664-1.891 1.197-3.807 2.375-5.582 3.732-5.051 3.858-10.834 6.096-16.846 7.875-1.686.499-3.34 1.099-5.008 1.65-4.273 1.416-8.707 2.076-13.145 2.658-2.686.353-5.408.459-8.117.616-1.254.072-2.496.247-3.748-.405-.572-.3-1.486.054-2.404.123-.01-.835.105-1.562-.06-2.217-.157-.618-.61-1.16-.933-1.736l-.477.283c.188.281.438.539.551.846.635 1.734-.287 3-2.074 2.578-2.795-.66-5.555-1.502-8.28-2.409-6.776-2.257-12.65-6.097-18.038-10.687-3.709-3.16-7.363-6.434-10.285-10.363-2.527-3.396-4.889-6.924-7.158-10.498-1.537-2.422-2.904-4.969-4.146-7.556-2.264-4.711-3.516-9.764-4.61-14.846-.49-2.261-.818-4.558-1.148-6.847-.592-4.105.088-8.115 1.006-12.103.627-2.726 1.125-5.484 1.828-8.19 1.043-4.017 2.227-7.997 3.322-12.001.205-.754.271-1.546.402-2.32l-.003.019zm46.316-.969c.01-.639.102-.916.002-1.074-1.055-1.685-1.178-3.578-1.459-5.485-.486-3.303-1.242-6.568-1.914-9.843a61.486 61.486 0 00-.938-3.93c-.146-.533-.459-1.021-.875-1.913-.346.741-.51.999-.592 1.28-.537 1.849.236 3.567.582 5.321.322 1.636.891 3.236 1.084 4.884.444 3.787 1.67 7.247 4.11 10.76zM41.881 37.513c-.557-2.388-1.03-4.8-1.7-7.156-.417-1.458-1.224-2.717-3.204-2.642.4 1.244.885 2.334 1.082 3.473.215 1.245.117 2.541.24 3.807.107 1.087.334 2.162.605 3.843.858-1.582 1.662-2.229 2.977-1.325zm52.871 95.918c-1.02-1.346-2.582-1.88-4.039-2.304-.82-.238-1.758-.09-2.69-.457-1.362-.537-2.88-.686-4.337-.957-.162-.031-.375.207-.562.32.814 1.432.82 1.416 2.213 1.906 2.447.861 4.885 1.746 7.428 2.657.547-.322 1.24-.727 1.987-1.165zM32.268 58.123l-.482.205c.314.704.63 1.409.941 2.113.143-.06.285-.12.426-.181-.296-.712-.59-1.425-.885-2.137z" fill="#000"/></svg>