<svg width="183" height="166" fill="none" xmlns="http://www.w3.org/2000/svg"><path d="M2.348 65.67c1.68-2.68 3.221-5.459 5.068-8.018 3.404-4.713 7.318-9.016 11.211-13.33 3.184-3.528 6.273-7.141 9.453-10.672 2.539-2.819 4.799-5.929 7.988-8.096 2.967-2.015 5.998-3.934 8.971-5.938a58.477 58.477 0 004.084-2.992c2.402-1.937 4.912-3.652 7.873-4.642.791-.265 1.541-.697 2.26-1.135 4.055-2.479 8.072-5.021 12.152-7.46a37.469 37.469 0 015.08-2.563c2.01-.818 4.127-.847 6.213-.154 2.104.7 4.211 1.384 6.293 2.142 1.223.445 2.432.744 3.707.345 1.527-.478 2.896-.008 4.291.571 2.471 1.028 4.492 2.759 6.699 4.198.883.576 1.662 1.32 2.566 1.853 1.172.69 2.367 1.418 3.648 1.825 3.045.966 5.846 2.341 8.561 4.03 5.92 3.681 12.016 7.056 18.656 9.312 3.893 1.322 7.846 2.479 11.68 3.951 4.234 1.625 8.422 3.392 12.207 5.969 1.568 1.068 3.186 2.062 4.793 3.071 5.637 3.536 9.451 8.704 12.566 14.398 1.732 3.165 2.258 6.792 3.035 10.298.859 3.869.713 7.783.465 11.678-.281 4.422-.773 8.831-1.203 13.243-.203 2.064-1.131 3.783-2.473 5.373-3 3.557-5.742 7.291-7.678 11.577-.965 2.138-1.582 4.359-2.182 6.605-.818 3.059-1.701 6.091-2.98 9.008-2.143 4.877-5.137 9.185-8.467 13.294a5.298 5.298 0 00-.889 1.646c-.957 2.936-2.58 5.521-4.021 8.223-2.625 4.92-6.338 8.944-9.887 13.125-.477.562-.965 1.143-1.549 1.58-3.637 2.719-7.285 5.4-11.676 6.875-2.057.692-4.111 1.031-6.229.674-2.287-.385-4.668-.635-6.791-1.486-2.316-.931-4.408-2.443-6.549-3.781-1.521-.951-2.908-2.118-4.443-3.041-3.434-2.064-6.928-4.028-10.387-6.049a106.954 106.954 0 01-3.234-1.99c-.445-.283-.828-.678-1.297-.906-4.656-2.273-8.91-5.248-13.443-7.713-4.629-2.517-9.387-4.863-14.602-6.03-.514-.115-1.051-.2-1.527-.412-6.029-2.673-12.549-3.687-18.814-5.558-3.748-1.119-7.475-2.238-11-3.988-3.594-1.785-7.26-3.432-10.908-5.105-3.236-1.484-5.865-3.698-8.135-6.418-2.25-2.699-4.182-5.565-5.436-8.869-1.244-3.275-2.145-6.619-2.365-10.131-.066-1.053-.166-2.111-.365-3.145A212.705 212.705 0 01.926 75.276c-.395-3.404.08-6.503 1.422-9.606zm55.543 64.619l-.15-.182c-.059.051-.16.096-.166.15-.004.055.082.159.139.165.052.007.116-.084.177-.133zm53.834 30.091c-.047-.058-.09-.153-.143-.16-.051-.007-.113.082-.17.129.047.057.09.153.143.158.053.005.113-.081.17-.127zm29.806-75.085l.039.206.166-.132-.205-.074z" fill="#000"/></svg>